<svg width="15" height="18" viewBox="0 0 15 18" fill="none" xmlns="http://www.w3.org/2000/svg">
<path d="M7.4954 -0.00195312C4.83731 -0.00195312 2.67224 2.16311 2.67224 4.82121C2.67168 4.87867 2.68037 4.93585 2.69797 4.99055C2.74298 6.68295 3.4761 8.16312 4.33784 9.53504C5.22959 10.9531 6.26175 12.2821 6.92413 13.639C6.96768 13.7284 7.03525 13.8039 7.11928 13.8571C7.20331 13.9103 7.30048 13.9391 7.39992 13.9402C7.49936 13.9413 7.59715 13.9147 7.68235 13.8634C7.76755 13.8121 7.83679 13.7381 7.88233 13.6497C8.57901 12.2939 9.66368 10.9627 10.6004 9.54576C11.5361 8.12882 12.3357 6.59827 12.3357 4.82978C12.3367 4.76169 12.3247 4.69403 12.3003 4.63043C12.1964 2.06343 10.0881 -0.00195312 7.4954 -0.00195312ZM7.4954 1.06986C9.57472 1.06986 11.2468 2.74296 11.2468 4.82121C11.2462 4.85971 11.2498 4.89816 11.2575 4.93589C11.2253 6.33782 10.5779 7.63686 9.70656 8.95519C8.96915 10.071 8.13528 11.2232 7.41609 12.4204C6.73334 11.2285 5.94663 10.0785 5.24674 8.96591C4.39679 7.61221 3.76121 6.28102 3.76121 4.82871C3.76107 4.79744 3.7582 4.76624 3.75263 4.73546C3.77173 3.7559 4.17461 2.82298 4.87458 2.13744C5.57454 1.45191 6.51565 1.06855 7.4954 1.06986ZM7.4954 3.21563C6.61437 3.21563 5.88768 3.94232 5.88768 4.82335C5.88768 5.70438 6.61437 6.43107 7.4954 6.43107C8.37751 6.43107 9.10313 5.70438 9.10313 4.82335C9.10313 3.94232 8.37751 3.21563 7.4954 3.21563ZM7.4954 4.28744C7.79766 4.28744 8.03131 4.5211 8.03131 4.82335C8.03131 5.1256 7.79766 5.35926 7.4954 5.35926C7.42475 5.36027 7.35461 5.3471 7.28913 5.32052C7.22366 5.29395 7.16418 5.25451 7.11421 5.20455C7.06424 5.15458 7.02481 5.0951 6.99823 5.02962C6.97166 4.96415 6.95849 4.89401 6.9595 4.82335C6.9595 4.5211 7.19315 4.28744 7.4954 4.28744ZM11.8791 9.88981C11.7542 9.89012 11.6334 9.93403 11.5374 10.0139C11.4415 10.0939 11.3765 10.2048 11.3536 10.3276C11.3307 10.4503 11.3514 10.5772 11.4122 10.6863C11.4729 10.7954 11.5698 10.8799 11.6862 10.9252C12.7548 11.3582 13.4418 11.9252 13.7376 12.4472C14.0345 12.9691 14.027 13.4204 13.6401 13.9756C12.863 15.086 10.3861 16.0699 7.55864 16.0817C4.73013 16.0924 2.21887 15.1353 1.39786 14.0217C0.987352 13.4643 0.966988 13.0109 1.24244 12.4911C1.51897 11.9723 2.18028 11.4 3.23173 10.9584C3.29965 10.9334 3.3618 10.8948 3.41441 10.8451C3.46703 10.7954 3.50903 10.7355 3.53788 10.6692C3.56673 10.6028 3.58183 10.5312 3.58227 10.4588C3.58271 10.3864 3.56848 10.3147 3.54044 10.248C3.51239 10.1812 3.47112 10.1209 3.41911 10.0705C3.3671 10.0202 3.30542 9.98089 3.23781 9.95503C3.1702 9.92917 3.09805 9.91728 3.02571 9.92007C2.95338 9.92286 2.88236 9.94028 2.81694 9.97127C1.61651 10.475 0.740835 11.1524 0.296032 11.9895C-0.14877 12.8255 -0.0715997 13.8352 0.535047 14.6583C1.74834 16.3025 4.51255 17.1664 7.56507 17.1535C10.6165 17.1406 13.355 16.2564 14.519 14.5919C15.101 13.7591 15.1407 12.7451 14.6691 11.9177C14.1996 11.0902 13.3046 10.4236 12.0881 9.93161C12.022 9.90346 11.951 9.88888 11.8791 9.88874V9.88981Z" fill="white"/>
</svg>
