<svg width="59" height="58" viewBox="0 0 59 58" fill="none" xmlns="http://www.w3.org/2000/svg">
<path d="M57.0099 28.81C56.7447 28.81 56.4903 28.7046 56.3028 28.5171C56.1153 28.3296 56.0099 28.0752 56.0099 27.81C56.0099 13.57 44.7599 2 30.8999 2C30.6347 2 30.3803 1.89464 30.1928 1.70711C30.0053 1.51957 29.8999 1.26522 29.8999 1C29.8999 0.734784 30.0053 0.48043 30.1928 0.292893C30.3803 0.105357 30.6347 0 30.8999 0C45.8499 0 58.0099 12.48 58.0099 27.83C58.0047 28.0917 57.897 28.341 57.71 28.5242C57.5231 28.7074 57.2717 28.8101 57.0099 28.81Z" fill="white"/>
<path d="M46.11 28.8099C45.8448 28.8099 45.5904 28.7046 45.4029 28.517C45.2153 28.3295 45.11 28.0752 45.11 27.8099C45.1582 23.9868 43.6902 20.3001 41.0271 17.5566C38.3641 14.813 34.7229 13.2357 30.9 13.1699C30.6348 13.1699 30.3804 13.0646 30.1929 12.877C30.0053 12.6895 29.9 12.4352 29.9 12.1699C29.9 11.9047 30.0053 11.6504 30.1929 11.4628C30.3804 11.2753 30.6348 11.1699 30.9 11.1699C35.2506 11.2306 39.3995 13.0144 42.4366 16.1302C45.4736 19.246 47.1507 23.4392 47.1 27.7899C47.1026 27.9221 47.0791 28.0535 47.0306 28.1765C46.9822 28.2994 46.9098 28.4116 46.8178 28.5065C46.7257 28.6013 46.6158 28.677 46.4943 28.7291C46.3728 28.7812 46.2422 28.8086 46.11 28.8099ZM52.01 49.8299C50.7334 52.385 48.9225 54.6359 46.7 56.4299C45.9067 57.0586 44.9906 57.5141 44.0106 57.7673C43.0306 58.0205 42.0085 58.0657 41.01 57.8999C31.94 56.3599 23.01 52.3799 14.1 43.6199C5.58999 34.4899 1.59999 25.1699 0.0999916 15.8599C-0.0660198 14.8372 -0.0249897 13.7915 0.220649 12.7849C0.466288 11.7783 0.911534 10.8313 1.52999 9.99994C3.25955 7.71267 5.47205 5.83478 8.00999 4.49994C8.25376 4.24398 8.54698 4.04021 8.87186 3.90097C9.19675 3.76174 9.54653 3.68994 9.89999 3.68994C10.2535 3.68994 10.6032 3.76174 10.9281 3.90097C11.253 4.04021 11.5462 4.24398 11.79 4.49994L20.6 13.6499C21.1363 14.2256 21.4345 14.9832 21.4345 15.7699C21.4345 16.5567 21.1363 17.3143 20.6 17.8899L14.36 24.6599C17.01 30.4699 26.8 40.5499 32.42 43.2699L39.01 36.8399C39.2803 36.569 39.6014 36.3541 39.9549 36.2074C40.3083 36.0608 40.6873 35.9853 41.07 35.9853C41.4527 35.9853 41.8316 36.0608 42.1851 36.2074C42.5386 36.3541 42.8597 36.569 43.13 36.8399L52.03 45.8399C52.292 46.1025 52.4995 46.4143 52.6404 46.7574C52.7814 47.1005 52.853 47.4682 52.8511 47.8391C52.8492 48.21 52.774 48.5769 52.6296 48.9186C52.4852 49.2603 52.2747 49.57 52.01 49.8299Z" fill="white"/>
</svg>
