<svg width="18" height="18" viewBox="0 0 18 18" fill="none" xmlns="http://www.w3.org/2000/svg">
<path d="M15.0243 14.9963H2.97559C2.34178 14.9955 1.73415 14.7434 1.28598 14.2953C0.837813 13.8471 0.585705 13.2395 0.584961 12.6057V5.39441C0.585705 4.7606 0.837813 4.15297 1.28598 3.7048C1.73415 3.25664 2.34178 3.00453 2.97559 3.00378H15.0243C15.6581 3.00453 16.2658 3.25664 16.7139 3.7048C17.1621 4.15297 17.4142 4.7606 17.415 5.39441V12.6057C17.4142 13.2395 17.1621 13.8471 16.7139 14.2953C16.2658 14.7434 15.6581 14.9955 15.0243 14.9963ZM2.97559 3.84753C2.56533 3.84753 2.17188 4.01051 1.88178 4.3006C1.59168 4.5907 1.42871 4.98415 1.42871 5.39441V12.6057C1.42871 13.0159 1.59168 13.4094 1.88178 13.6995C2.17188 13.9896 2.56533 14.1525 2.97559 14.1525H15.0243C15.4346 14.1525 15.828 13.9896 16.1181 13.6995C16.4082 13.4094 16.5712 13.0159 16.5712 12.6057V5.39441C16.5712 4.98415 16.4082 4.5907 16.1181 4.3006C15.828 4.01051 15.4346 3.84753 15.0243 3.84753H2.97559Z" fill="white"/>
<path d="M8.99995 10.71C8.47951 10.7108 7.97299 10.542 7.55713 10.2291L0.989946 5.26219C0.943546 5.22962 0.904185 5.18804 0.874213 5.13992C0.844242 5.09181 0.824275 5.03814 0.815504 4.98214C0.806734 4.92613 0.809341 4.86894 0.823169 4.81396C0.836996 4.75899 0.861762 4.70736 0.895986 4.66217C0.930209 4.61698 0.97319 4.57915 1.02236 4.55094C1.07153 4.52273 1.12588 4.50472 1.18217 4.49798C1.23845 4.49125 1.29552 4.49592 1.34996 4.51173C1.40439 4.52754 1.45509 4.55416 1.49901 4.59L8.0662 9.5625C8.33588 9.76382 8.66341 9.87258 8.99995 9.87258C9.33648 9.87258 9.66401 9.76382 9.9337 9.5625L16.5009 4.59C16.5448 4.55416 16.5955 4.52754 16.6499 4.51173C16.7044 4.49592 16.7614 4.49125 16.8177 4.49798C16.874 4.50472 16.9284 4.52273 16.9775 4.55094C17.0267 4.57915 17.0697 4.61698 17.1039 4.66217C17.1381 4.70736 17.1629 4.75899 17.1767 4.81396C17.1906 4.86894 17.1932 4.92613 17.1844 4.98214C17.1756 5.03814 17.1557 5.09181 17.1257 5.13992C17.0957 5.18804 17.0563 5.22962 17.0099 5.26219L10.4428 10.2291C10.0269 10.542 9.52038 10.7108 8.99995 10.71Z" fill="white"/>
<path d="M1.17286 13.8207C1.0873 13.8208 1.00372 13.7949 0.933213 13.7464C0.862708 13.698 0.808611 13.6292 0.7781 13.5492C0.747589 13.4693 0.742106 13.382 0.762379 13.2988C0.782653 13.2157 0.827723 13.1407 0.891611 13.0838L6.06661 8.46849C6.15015 8.3939 6.25991 8.35555 6.37173 8.36188C6.48354 8.36821 6.58827 8.4187 6.66286 8.50224C6.73745 8.58579 6.7758 8.69554 6.76947 8.80736C6.76314 8.91918 6.71265 9.0239 6.62911 9.09849L1.45411 13.7138C1.37726 13.7837 1.27676 13.8219 1.17286 13.8207ZM16.8272 13.8207C16.7233 13.8219 16.6228 13.7837 16.546 13.7138L11.371 9.09849C11.2874 9.0239 11.237 8.91918 11.2306 8.80736C11.2243 8.69554 11.2626 8.58579 11.3372 8.50224C11.4118 8.4187 11.5166 8.36821 11.6284 8.36188C11.7402 8.35555 11.8499 8.3939 11.9335 8.46849L17.1057 13.0838C17.1696 13.1407 17.2146 13.2157 17.2349 13.2988C17.2552 13.382 17.2497 13.4693 17.2192 13.5492C17.1887 13.6292 17.1346 13.698 17.0641 13.7464C16.9936 13.7949 16.91 13.8208 16.8244 13.8207H16.8272Z" fill="white"/>
</svg>
