<svg width="25" height="17" viewBox="0 0 25 17" fill="none" xmlns="http://www.w3.org/2000/svg">
<path d="M24.3496 0.600403C24.3496 0.581155 24.3496 0.561907 24.3448 0.537846C24.3448 0.533034 24.3448 0.533034 24.3448 0.528221C24.34 0.508973 24.34 0.489725 24.3304 0.470476C24.3304 0.465664 24.3304 0.465664 24.3255 0.460851C24.3255 0.456039 24.3207 0.446415 24.3207 0.441603C24.3159 0.427167 24.3111 0.417542 24.3063 0.403106V0.398294C24.2967 0.379045 24.287 0.364609 24.2774 0.345361C24.2774 0.345361 24.2774 0.340548 24.2726 0.340548C24.263 0.3213 24.2485 0.306863 24.2389 0.292427L24.2341 0.287615C24.2197 0.273178 24.21 0.258742 24.1956 0.244306C24.1908 0.244306 24.1908 0.239494 24.186 0.239494C24.1715 0.225057 24.1571 0.215433 24.1379 0.205809C24.1331 0.205809 24.1331 0.200997 24.1282 0.200997C24.109 0.191372 24.0946 0.181748 24.0753 0.172124H24.0705C24.0512 0.162499 24.032 0.152875 24.0127 0.148063C23.9935 0.143251 23.9743 0.138439 23.9502 0.133627H23.9454C23.9261 0.128815 23.9069 0.128815 23.8876 0.128815C23.8828 0.128815 23.8828 0.128815 23.878 0.128815C23.8732 0.128815 23.8732 0.128815 23.8684 0.128815H0.769944C0.765132 0.128815 0.765132 0.128815 0.76032 0.128815C0.755508 0.128815 0.755508 0.128815 0.750696 0.128815C0.731447 0.128815 0.712198 0.133627 0.692949 0.133627H0.688137C0.668889 0.138439 0.64964 0.143251 0.625579 0.148063C0.60633 0.152875 0.587082 0.162499 0.567833 0.172124H0.563021C0.543772 0.181748 0.529336 0.191372 0.510087 0.200997C0.505275 0.200997 0.505275 0.205809 0.500462 0.205809C0.486026 0.215433 0.471589 0.229869 0.452341 0.239494C0.447529 0.239494 0.447529 0.244306 0.442716 0.244306C0.42828 0.258742 0.413843 0.273178 0.404219 0.287615L0.399407 0.292427C0.38497 0.306863 0.375346 0.326112 0.365722 0.340548C0.365722 0.340548 0.365722 0.345361 0.360909 0.345361C0.351285 0.359797 0.341661 0.379045 0.332036 0.398294V0.403106C0.327224 0.417542 0.322412 0.427167 0.3176 0.441603C0.3176 0.446415 0.312788 0.456039 0.312788 0.460851C0.312788 0.465664 0.312788 0.465664 0.307976 0.470476C0.303163 0.489725 0.298351 0.508973 0.293539 0.528221C0.293539 0.533034 0.293539 0.533034 0.293539 0.537846C0.288727 0.561907 0.288727 0.581155 0.288727 0.600403C0.288727 0.600403 0.288727 0.600403 0.288727 0.605215V15.417V16.0329C0.288727 16.2976 0.505275 16.5141 0.769944 16.5141H23.8684C24.1331 16.5141 24.3496 16.2976 24.3496 16.0329V15.417V0.600403C24.3496 0.605216 24.3496 0.605216 24.3496 0.600403ZM1.25116 1.60133L6.03446 5.39329L9.28749 7.97259L1.25116 14.4112V1.60133ZM10.0671 8.58854L12.0256 10.1044C12.0352 10.114 12.0497 10.1188 12.0593 10.1284C12.2181 10.2295 12.425 10.2295 12.5838 10.1284C12.5935 10.1188 12.6079 10.114 12.6175 10.1044L14.5761 8.58854L23.2717 15.5517H1.37147L10.0671 8.58854ZM15.3508 7.9774L18.6039 5.3981L23.3872 1.60614V14.416L15.3508 7.9774ZM22.4873 1.08643L18.7627 4.04108L14.2825 7.59724L12.3192 9.11306L10.3558 7.59724L5.87566 4.04589L2.15104 1.09124H22.4873V1.08643Z" fill="#231F20"/>
</svg>
