<svg width="24" height="23" viewBox="0 0 24 23" fill="none" xmlns="http://www.w3.org/2000/svg">
<path d="M11.9874 5.73543C8.65591 5.73543 5.96874 8.34796 5.96874 11.5869C5.96874 14.8258 8.65591 17.4383 11.9874 17.4383C15.3188 17.4383 18.006 14.8258 18.006 11.5869C18.006 8.34796 15.3188 5.73543 11.9874 5.73543ZM11.9874 15.3911C9.83449 15.3911 8.07447 13.6851 8.07447 11.5869C8.07447 9.48871 9.82925 7.78268 11.9874 7.78268C14.1455 7.78268 15.9003 9.48871 15.9003 11.5869C15.9003 13.6851 14.1402 15.3911 11.9874 15.3911ZM19.656 5.49608C19.656 6.25488 19.0274 6.86091 18.2522 6.86091C17.4717 6.86091 16.8484 6.24979 16.8484 5.49608C16.8484 4.74237 17.477 4.13125 18.2522 4.13125C19.0274 4.13125 19.656 4.74237 19.656 5.49608ZM23.6423 6.88128C23.5532 5.05302 23.1237 3.43356 21.746 2.09928C20.3736 0.765011 18.7079 0.347414 16.8274 0.255746C14.8893 0.148801 9.0802 0.148801 7.14208 0.255746C5.26683 0.342321 3.60109 0.759918 2.22346 2.09419C0.845829 3.42846 0.421538 5.04793 0.327252 6.87619C0.217251 8.76047 0.217251 14.4082 0.327252 16.2925C0.4163 18.1207 0.845829 19.7402 2.22346 21.0745C3.60109 22.4088 5.26159 22.8264 7.14208 22.918C9.0802 23.025 14.8893 23.025 16.8274 22.918C18.7079 22.8314 20.3736 22.4138 21.746 21.0745C23.1184 19.7402 23.548 18.1207 23.6423 16.2925C23.7523 14.4082 23.7523 8.76556 23.6423 6.88128ZM21.1384 18.3143C20.7298 19.3124 19.9389 20.0814 18.907 20.4837C17.3617 21.0796 13.695 20.9421 11.9874 20.9421C10.2797 20.9421 6.60779 21.0745 5.06778 20.4837C4.0411 20.0865 3.25014 19.3175 2.83632 18.3143C2.22346 16.8119 2.36489 13.2471 2.36489 11.5869C2.36489 9.92668 2.2287 6.35674 2.83632 4.8595C3.2449 3.86134 4.03586 3.09235 5.06778 2.69003C6.61303 2.09419 10.2797 2.23169 11.9874 2.23169C13.695 2.23169 17.3669 2.09928 18.907 2.69003C19.9336 3.08726 20.7246 3.85625 21.1384 4.8595C21.7513 6.36183 21.6098 9.92668 21.6098 11.5869C21.6098 13.2471 21.7513 16.817 21.1384 18.3143Z" fill="white"/>
</svg>
