<svg width="23" height="19" viewBox="0 0 23 19" fill="none" xmlns="http://www.w3.org/2000/svg">
<path d="M17.5029 3.23297C17.2321 3.23297 16.9674 3.29873 16.7423 3.42193C16.5171 3.54514 16.3416 3.72026 16.238 3.92514C16.1343 4.13002 16.1072 4.35547 16.16 4.57297C16.2129 4.79048 16.3433 4.99027 16.5348 5.14708C16.7263 5.30389 16.9702 5.41068 17.2358 5.45394C17.5014 5.49721 17.7767 5.475 18.0269 5.39014C18.2771 5.30527 18.4909 5.16156 18.6414 4.97716C18.7918 4.79277 18.8721 4.57599 18.8721 4.35423C18.8721 4.05685 18.7279 3.77165 18.4711 3.56138C18.2143 3.3511 17.8661 3.23297 17.5029 3.23297ZM22.7515 5.49417C22.7294 4.71891 22.552 3.95188 22.2267 3.22362C21.9366 2.60051 21.485 2.03628 20.9031 1.56976C20.3381 1.09082 19.6475 0.723378 18.8835 0.495223C17.9966 0.220665 17.0589 0.0721437 16.1109 0.0560629C14.9015 -5.22127e-08 14.5135 0 11.41 0C8.30648 0 7.91854 -5.22127e-08 6.70908 0.0560629C5.76108 0.0721437 4.8234 0.220665 3.93645 0.495223C3.17389 0.725687 2.48388 1.09282 1.91688 1.56976C1.33203 2.03245 0.883335 2.598 0.60473 3.22362C0.269459 3.94996 0.0880966 4.71784 0.0684599 5.49417C-6.37583e-08 6.48462 0 6.80231 0 9.34383C0 11.8854 -6.37583e-08 12.203 0.0684599 13.1935C0.0880966 13.9698 0.269459 14.7377 0.60473 15.464C0.883335 16.0897 1.33203 16.6552 1.91688 17.1179C2.48388 17.5948 3.17389 17.962 3.93645 18.1924C4.8234 18.467 5.76108 18.6155 6.70908 18.6316C7.91854 18.6877 8.30648 18.6877 11.41 18.6877C14.5135 18.6877 14.9015 18.6877 16.1109 18.6316C17.0589 18.6155 17.9966 18.467 18.8835 18.1924C19.6475 17.9643 20.3381 17.5968 20.9031 17.1179C21.4876 16.6531 21.9395 16.0884 22.2267 15.464C22.552 14.7358 22.7294 13.9688 22.7515 13.1935C22.7515 12.203 22.82 11.8854 22.82 9.34383C22.82 6.80231 22.82 6.48462 22.7515 5.49417ZM20.6977 13.0814C20.6894 13.6745 20.5583 14.2621 20.3098 14.8193C20.1276 15.226 19.835 15.5934 19.454 15.8939C19.084 16.2027 18.6362 16.4418 18.1419 16.5946C17.4615 16.7981 16.7439 16.9055 16.0196 16.9123C14.8786 16.9591 14.4565 16.9684 11.4556 16.9684C8.45481 16.9684 8.03264 16.9684 6.89164 16.9123C6.1396 16.9239 5.39076 16.829 4.6781 16.632C4.20548 16.4714 3.77826 16.2328 3.423 15.9312C3.04429 15.6311 2.75534 15.2633 2.57866 14.8567C2.30009 14.2915 2.14559 13.6905 2.12226 13.0814C2.12226 12.147 2.0538 11.8013 2.0538 9.34383C2.0538 6.8864 2.0538 6.54068 2.12226 5.6063C2.12737 4.99994 2.26255 4.39903 2.52161 3.83097C2.72248 3.43658 3.0308 3.08501 3.423 2.80315C3.76965 2.48188 4.19807 2.22672 4.6781 2.05564C5.3736 1.85012 6.10663 1.7427 6.846 1.73795C7.987 1.73795 8.40917 1.68189 11.41 1.68189C14.4108 1.68189 14.833 1.68189 15.974 1.73795C16.6983 1.74476 17.4159 1.85218 18.0963 2.05564C18.6148 2.21323 19.0801 2.46943 19.454 2.80315C19.828 3.09017 20.1201 3.44108 20.3098 3.83097C20.5634 4.39995 20.6946 5.00061 20.6977 5.6063C20.7548 6.54068 20.7662 6.8864 20.7662 9.34383C20.7662 11.8013 20.7548 12.147 20.6977 13.0814ZM11.41 4.55045C10.2528 4.55229 9.12225 4.83499 8.16118 5.36282C7.20011 5.89064 6.45165 6.63991 6.01037 7.51595C5.56909 8.39199 5.45481 9.35548 5.68195 10.2847C5.90908 11.2139 6.46746 12.0671 7.28651 12.7366C8.10557 13.406 9.14855 13.8616 10.2837 14.0458C11.4188 14.23 12.5951 14.1345 13.664 13.7714C14.7329 13.4084 15.6464 12.794 16.2891 12.0059C16.9317 11.2179 17.2747 10.2915 17.2747 9.34383C17.2762 8.71322 17.1255 8.08859 16.8312 7.50586C16.5368 6.92313 16.1047 6.39381 15.5597 5.94833C15.0146 5.50286 14.3674 5.15002 13.6553 4.91012C12.9431 4.67022 12.1801 4.54798 11.41 4.55045ZM11.41 12.4553C10.6585 12.4553 9.92392 12.2728 9.29909 11.9309C8.67426 11.5891 8.18727 11.1031 7.89969 10.5346C7.61211 9.966 7.53687 9.34038 7.68348 8.73681C7.83008 8.13324 8.19195 7.57882 8.72333 7.14367C9.2547 6.70852 9.93171 6.41218 10.6687 6.29212C11.4058 6.17207 12.1697 6.23368 12.864 6.46918C13.5583 6.70469 14.1517 7.10349 14.5692 7.61518C14.9867 8.12686 15.2095 8.72844 15.2095 9.34383C15.2095 9.75244 15.1113 10.157 14.9203 10.5346C14.7294 10.9121 14.4495 11.2551 14.0967 11.544C13.7439 11.8329 13.325 12.0621 12.864 12.2185C12.403 12.3748 11.909 12.4553 11.41 12.4553Z" fill="black"/>
</svg>
