<svg width="80" height="80" viewBox="0 0 80 80" fill="none" xmlns="http://www.w3.org/2000/svg">
<path d="M40 5C27.87 5 18 14.87 18 27C18 46.482 37.561 73.07 38.394 74.191C38.5798 74.4421 38.8219 74.646 39.1008 74.7866C39.3797 74.9272 39.6877 75.0004 40 75.0004C40.3123 75.0004 40.6203 74.9272 40.8992 74.7866C41.1781 74.646 41.4202 74.4421 41.606 74.191C42.439 73.07 62 46.482 62 27C62 14.87 52.13 5 40 5ZM40 69.534C35.314 62.721 22 42.04 22 27C22 17.075 30.075 9 40 9C49.925 9 58 17.075 58 27C58 42.04 44.686 62.72 40 69.534Z" fill="white"/>
<path d="M40 14C33.383 14 28 19.383 28 26C28 32.617 33.383 38 40 38C46.617 38 52 32.617 52 26C52 19.383 46.617 14 40 14ZM40 34C35.589 34 32 30.411 32 26C32 21.589 35.589 18 40 18C44.411 18 48 21.589 48 26C48 30.411 44.411 34 40 34Z" fill="white"/>
</svg>
