<svg width="17" height="14" viewBox="0 0 17 14" fill="none" xmlns="http://www.w3.org/2000/svg">
<path d="M16.5886 1.62753C15.9651 1.89962 15.3058 2.07948 14.6311 2.16153C15.3429 1.73377 15.8763 1.06081 16.1324 0.267501C15.4635 0.668054 14.7313 0.950267 13.9676 1.10188C13.4571 0.544991 12.7773 0.174298 12.0349 0.0479363C11.2924 -0.0784256 10.5292 0.0466906 9.86505 0.403662C9.20088 0.760633 8.67328 1.32927 8.36499 2.02039C8.05669 2.7115 7.98515 3.48601 8.16158 4.22244C6.80913 4.15362 5.48621 3.79937 4.27874 3.18269C3.07126 2.56601 2.00626 1.7007 1.15291 0.642969C0.853596 1.16877 0.696321 1.76422 0.69672 2.37013C0.695659 2.93281 0.832926 3.48703 1.0963 3.98344C1.35968 4.47985 1.74099 4.90305 2.20628 5.21534C1.66547 5.20054 1.13622 5.05456 0.663543 4.78981V4.83153C0.667596 5.61993 0.942226 6.38271 1.44098 6.99087C1.93973 7.59902 2.63199 8.01521 3.40066 8.16903C3.10476 8.25962 2.79756 8.30738 2.48829 8.31088C2.2742 8.30836 2.06065 8.28883 1.84963 8.25247C2.06852 8.93066 2.49212 9.52334 3.06148 9.94805C3.63085 10.3728 4.31765 10.6084 5.02634 10.6221C3.82964 11.5693 2.35216 12.0863 0.829429 12.0906C0.55218 12.0915 0.275151 12.0748 0 12.0405C1.5547 13.0503 3.3665 13.5864 5.21711 13.5841C6.49417 13.5975 7.76108 13.3547 8.94382 12.87C10.1266 12.3852 11.2015 11.6683 12.1057 10.761C13.0099 9.85373 13.7254 8.77428 14.2102 7.58572C14.6951 6.39717 14.9397 5.12334 14.9297 3.83863C14.9297 3.69678 14.9297 3.54659 14.9297 3.39641C15.5806 2.90814 16.1419 2.30957 16.5886 1.62753Z" fill="black"/>
</svg>
