<svg width="27" height="22" viewBox="0 0 27 22" fill="none" xmlns="http://www.w3.org/2000/svg">
<path d="M23.5298 5.30834C23.5465 5.5413 23.5465 5.77431 23.5465 6.00726C23.5465 13.1128 18.1383 21.3 8.25376 21.3C5.20851 21.3 2.37962 20.418 0 18.8871C0.432672 18.937 0.848646 18.9537 1.29797 18.9537C3.81066 18.9537 6.12374 18.105 7.97086 16.6573C5.60789 16.6073 3.62764 15.0598 2.94537 12.9298C3.27821 12.9797 3.611 13.0129 3.96048 13.0129C4.44305 13.0129 4.92566 12.9464 5.37493 12.8299C2.91212 12.3307 1.06496 10.1674 1.06496 7.55483V7.4883C1.78048 7.88767 2.61258 8.13728 3.49447 8.17052C2.04673 7.20535 1.09825 5.55794 1.09825 3.69418C1.09825 2.69576 1.36445 1.78053 1.83042 0.981772C4.47629 4.24333 8.45342 6.3733 12.9131 6.6063C12.8299 6.20693 12.7799 5.79095 12.7799 5.37493C12.7799 2.41286 15.1762 0 18.1549 0C19.7024 0 21.1002 0.648983 22.0821 1.69734C23.2968 1.46439 24.4616 1.01507 25.4934 0.399378C25.094 1.64745 24.2453 2.69581 23.1304 3.36139C24.2121 3.24496 25.2604 2.94537 26.2256 2.52939C25.4935 3.59435 24.5782 4.54283 23.5298 5.30834Z" fill="white"/>
</svg>
