<svg width="45" height="40" viewBox="0 0 45 40" fill="none" xmlns="http://www.w3.org/2000/svg">
<path d="M44.4705 36.3921L41.6699 12.8249C41.5791 12.0571 41.2084 11.3497 40.6286 10.8381C40.0489 10.3264 39.3009 10.0465 38.5277 10.0519H31.923C31.923 7.55171 30.9298 5.15395 29.1619 3.38607C27.394 1.61819 24.9962 0.625 22.4961 0.625C19.9959 0.625 17.5982 1.61819 15.8303 3.38607C14.0624 5.15395 13.0692 7.55171 13.0692 10.0519H6.45665C5.68345 10.0465 4.93543 10.3264 4.35569 10.8381C3.77594 11.3497 3.40519 12.0571 3.31436 12.8249L0.513788 36.3921C0.462466 36.832 0.504697 37.2777 0.637711 37.7001C0.770725 38.1225 0.991518 38.512 1.28561 38.8431C1.58184 39.1756 1.94483 39.4419 2.35091 39.6246C2.75699 39.8074 3.19703 39.9024 3.64233 39.9036H41.3341C41.7821 39.9047 42.2251 39.8107 42.6341 39.6278C43.043 39.445 43.4086 39.1776 43.7065 38.8431C43.9993 38.5114 44.2186 38.1216 44.3503 37.6992C44.4819 37.2768 44.5229 36.8314 44.4705 36.3921ZM22.4961 3.76729C24.1629 3.76729 25.7614 4.42941 26.9399 5.608C28.1185 6.78659 28.7807 8.3851 28.7807 10.0519H16.2115C16.2115 8.3851 16.8736 6.78659 18.0522 5.608C19.2308 4.42941 20.8293 3.76729 22.4961 3.76729ZM3.64233 36.7613L6.45665 13.1942H13.0692V17.9076C13.0692 18.3243 13.2347 18.7239 13.5294 19.0186C13.824 19.3132 14.2237 19.4787 14.6404 19.4787C15.057 19.4787 15.4567 19.3132 15.7513 19.0186C16.046 18.7239 16.2115 18.3243 16.2115 17.9076V13.1942H28.7807V17.9076C28.7807 18.3243 28.9462 18.7239 29.2408 19.0186C29.5355 19.3132 29.9351 19.4787 30.3518 19.4787C30.7685 19.4787 31.1681 19.3132 31.4628 19.0186C31.7574 18.7239 31.923 18.3243 31.923 17.9076V13.1942H38.5512L41.3341 36.7613H3.64233Z" fill="black"/>
</svg>
