<svg width="18" height="14" viewBox="0 0 18 14" fill="none" xmlns="http://www.w3.org/2000/svg">
<path fill-rule="evenodd" clip-rule="evenodd" d="M1 0C0.44772 0 0 0.44772 0 1C0 1.55228 0.44772 2 1 2H17C17.5523 2 18 1.55228 18 1C18 0.44772 17.5523 0 17 0H1ZM0 7C0 6.4477 0.44772 6 1 6H15C15.5523 6 16 6.4477 16 7C16 7.5523 15.5523 8 15 8H1C0.44772 8 0 7.5523 0 7ZM0 13C0 12.4477 0.44772 12 1 12H13C13.5523 12 14 12.4477 14 13C14 13.5523 13.5523 14 13 14H1C0.44772 14 0 13.5523 0 13Z" fill="#084B45"/>
</svg>
