<svg width="24" height="24" viewBox="0 0 24 24" fill="none" xmlns="http://www.w3.org/2000/svg">
<mask id="mask0_12_94" style="mask-type:luminance" maskUnits="userSpaceOnUse" x="0" y="0" width="24" height="24">
<path d="M24 0H0V24H24V0Z" fill="white"/>
</mask>
<g mask="url(#mask0_12_94)">
<path d="M10.23 20.5101C10.2288 21.0887 10.0603 21.6546 9.74487 22.1396C9.4294 22.6247 8.98039 23.0082 8.45195 23.2438C7.92352 23.4795 7.3382 23.5574 6.76653 23.468C6.19487 23.3786 5.66125 23.1258 5.22997 22.7401C4.91188 22.4848 4.64916 22.1674 4.45788 21.8072C4.26659 21.4471 4.15076 21.0517 4.11745 20.6452C4.08413 20.2387 4.13405 19.8297 4.26414 19.4432C4.39423 19.0567 4.60176 18.7007 4.87406 18.3971C5.14635 18.0935 5.47769 17.8486 5.84783 17.6774C6.21798 17.5062 6.61914 17.4122 7.02682 17.4012C7.43451 17.3903 7.84014 17.4626 8.21894 17.6137C8.59775 17.7648 8.94176 17.9915 9.22997 18.2801C9.54683 18.5583 9.80013 18.9015 9.97267 19.2862C10.1452 19.671 10.233 20.0884 10.23 20.5101Z" fill="#FFC300"/>
<path d="M7.22994 22.74C6.84522 22.3923 6.5572 21.9508 6.39398 21.4586C6.23075 20.9664 6.19791 20.4403 6.29864 19.9316C6.39937 19.4229 6.63024 18.949 6.96872 18.5561C7.30721 18.1633 7.74174 17.8649 8.22994 17.69C7.77681 17.5255 7.29072 17.4727 6.81284 17.5359C6.33495 17.5992 5.87934 17.7767 5.48459 18.0533C5.08984 18.33 4.76757 18.6977 4.54508 19.1254C4.32259 19.553 4.20642 20.028 4.20642 20.51C4.20642 20.9921 4.32259 21.467 4.54508 21.8947C4.76757 22.3223 5.08984 22.69 5.48459 22.9667C5.87934 23.2434 6.33495 23.4208 6.81284 23.4841C7.29072 23.5473 7.77681 23.4945 8.22994 23.33C7.86137 23.2003 7.52168 22.9999 7.22994 22.74Z" fill="black"/>
<path d="M19.2701 22.0899L16.6801 23.5899C16.5665 23.6565 16.441 23.6999 16.3106 23.7179C16.1802 23.7358 16.0476 23.7278 15.9203 23.6943C15.7931 23.6609 15.6736 23.6027 15.5689 23.523C15.4642 23.4433 15.3762 23.3437 15.3101 23.2299L10.3101 14.5699L12.5801 14.2399C12.8328 14.2029 13.0618 14.0705 13.2201 13.8699L14.6401 12.0699L19.6401 20.7299C19.7704 20.9596 19.8047 21.2314 19.7354 21.4862C19.6661 21.741 19.4988 21.958 19.2701 22.0899Z" fill="#FFC300"/>
<path d="M17 22.22L12.4 14.22L10.27 14.53L15.27 23.19C15.3362 23.3037 15.4241 23.4033 15.5289 23.483C15.6336 23.5627 15.753 23.6209 15.8803 23.6544C16.0076 23.6878 16.1402 23.6958 16.2706 23.6779C16.4009 23.66 16.5265 23.6165 16.64 23.55L18.36 22.55C18.1352 22.6838 17.8669 22.7242 17.6127 22.6625C17.3584 22.6008 17.1385 22.4419 17 22.22Z" fill="black"/>
<path d="M14.64 12.07L13.22 13.87C13.0618 14.0705 12.8328 14.2029 12.58 14.24L10.31 14.57L7.76003 10.15C7.61392 9.89426 7.53802 9.60446 7.54003 9.30996C7.53684 9.05006 7.59509 8.79308 7.71003 8.55996C7.82938 8.31553 7.88721 8.04564 7.8785 7.77376C7.86978 7.50188 7.79479 7.23625 7.66003 6.99996L4.66003 1.70996L6.39003 0.709961L9.39003 5.99996C9.5294 6.2387 9.72553 6.43936 9.96102 6.58414C10.1965 6.72893 10.4641 6.81336 10.74 6.82996C11.0167 6.84848 11.2846 6.93479 11.52 7.08128C11.7554 7.22777 11.9512 7.42994 12.09 7.66996L14.64 12.07Z" fill="#FFC300"/>
<path d="M11.38 13.95L8.83003 9.53003C8.6833 9.26512 8.62381 8.96069 8.66003 8.66003C8.68831 8.37175 8.78425 8.09423 8.94003 7.85003C9.1019 7.60381 9.19309 7.31789 9.20367 7.02342C9.21425 6.72895 9.14381 6.43723 9.00003 6.18003L6.00003 0.890029L7.00003 0.280029L4.91003 1.51003L8.00003 6.80003C8.13798 7.06083 8.20161 7.35453 8.18398 7.64904C8.16634 7.94355 8.06812 8.22755 7.90003 8.47003C7.74425 8.71423 7.64831 8.99175 7.62003 9.28003C7.58381 9.58069 7.6433 9.88512 7.79003 10.15L10.34 14.57L13 14C13.3039 13.9302 13.5793 13.7698 13.79 13.54L13.9 13.42L11.38 13.95Z" fill="#FFC300"/>
<path d="M7.71003 8.55996C7.82938 8.31553 7.88721 8.04564 7.8785 7.77376C7.86978 7.50188 7.79479 7.23625 7.66003 6.99996L4.66003 1.70996L6.39003 0.709961L9.39003 5.99996C9.5294 6.2387 9.72553 6.43936 9.96102 6.58414C10.1965 6.72893 10.4641 6.81336 10.74 6.82996L7.71003 8.55996Z" fill="#FFC300"/>
<path d="M8.53003 6.47994L5.53003 1.18994L6.39003 0.689941L4.66003 1.68994L7.66003 6.99994C7.79821 7.23869 7.8751 7.50794 7.88382 7.78365C7.89255 8.05936 7.83284 8.33294 7.71003 8.57994L8.58003 8.07994C8.70635 7.8304 8.76797 7.55312 8.75924 7.27356C8.7505 6.994 8.67169 6.72111 8.53003 6.47994Z" fill="black"/>
<path d="M8 7.82004C8.41613 7.90347 8.84841 7.83283 9.21633 7.62127C9.58426 7.40972 9.86277 7.07166 10 6.67004" fill="#FFC300"/>
<path d="M9.56004 17.91C8.91277 17.3545 8.088 17.0492 7.23504 17.0492C6.38208 17.0492 5.55731 17.3545 4.91004 17.91C4.54282 18.2374 4.24898 18.6388 4.04777 19.0877C3.84657 19.5367 3.74255 20.0231 3.74255 20.515C3.74255 21.007 3.84657 21.4934 4.04777 21.9424C4.24898 22.3913 4.54282 22.7926 4.91004 23.12C5.60093 23.738 6.509 24.0562 7.43449 24.0046C8.35999 23.953 9.22708 23.5359 9.84504 22.845C10.463 22.1542 10.7812 21.2461 10.7296 20.3206C10.678 19.3951 10.2609 18.528 9.57004 17.91H9.56004ZM5.23004 22V21.93C5.14384 21.8235 5.0669 21.7097 5.00004 21.59L4.94004 21.45C4.89953 21.3458 4.86612 21.2388 4.84004 21.13C4.84004 21.13 4.84004 21.04 4.84004 20.99C4.7667 20.6607 4.7667 20.3193 4.84004 19.99C4.84004 19.99 4.84004 19.9 4.84004 19.85C4.86887 19.7376 4.90563 19.6273 4.95004 19.52L5.00004 19.44C5.0601 19.3177 5.13035 19.2006 5.21004 19.09V19.04C5.53459 19.4728 5.71004 19.9991 5.71004 20.54C5.71004 21.081 5.53459 21.6073 5.21004 22.04L5.23004 22ZM8.48004 22.65C8.09748 22.8619 7.66735 22.9731 7.23004 22.9731C6.79273 22.9731 6.36259 22.8619 5.98004 22.65C6.46932 22.0383 6.73588 21.2784 6.73588 20.495C6.73588 19.7117 6.46932 18.9517 5.98004 18.34C6.35953 18.1137 6.79317 17.9942 7.23504 17.9942C7.67691 17.9942 8.11055 18.1137 8.49004 18.34C8.00075 18.9517 7.73419 19.7117 7.73419 20.495C7.73419 21.2784 8.00075 22.0383 8.49004 22.65H8.48004ZM9.67004 20C9.74305 20.3294 9.74305 20.6707 9.67004 21C9.67004 21 9.67004 21.09 9.67004 21.14C9.64121 21.2525 9.60445 21.3628 9.56004 21.47L9.50004 21.6C9.43998 21.7224 9.36973 21.8395 9.29004 21.95V22C8.96548 21.5673 8.79004 21.041 8.79004 20.5C8.79004 19.9591 8.96548 19.4328 9.29004 19L9.34004 19.08C9.41149 19.1817 9.47501 19.2887 9.53004 19.4L9.59004 19.54C9.63058 19.6443 9.66399 19.7512 9.69004 19.86L9.67004 20ZM20.07 20.44L15.07 11.78L12.52 7.40004C12.3393 7.08731 12.084 6.82413 11.777 6.63395C11.4699 6.44377 11.1205 6.3325 10.76 6.31004C10.5679 6.29738 10.3818 6.23791 10.218 6.13682C10.0541 6.03572 9.91752 5.89607 9.82004 5.73004L6.77004 0.43004C6.70325 0.316524 6.59437 0.233945 6.46704 0.200242C6.33972 0.166539 6.20424 0.184435 6.09004 0.25004L4.36004 1.25004C4.24652 1.31683 4.16394 1.42571 4.13024 1.55304C4.09654 1.68036 4.11443 1.81584 4.18004 1.93004L7.23004 7.23004C7.32021 7.39934 7.36737 7.58822 7.36737 7.78004C7.36737 7.97186 7.32021 8.16074 7.23004 8.33004C7.07359 8.65291 6.99735 9.00876 7.0078 9.36739C7.01824 9.72601 7.11506 10.0768 7.29004 10.39L9.84004 14.81L14.84 23.47C14.9379 23.6411 15.0687 23.791 15.2249 23.9112C15.3811 24.0314 15.5596 24.1193 15.75 24.17C15.9478 24.2245 16.1547 24.2375 16.3578 24.2082C16.5608 24.1789 16.7557 24.1081 16.93 24L19.52 22.5C19.8536 22.3035 20.0975 21.9848 20.2002 21.6115C20.3029 21.2381 20.2562 20.8395 20.07 20.5V20.44ZM5.29004 1.87004L6.15004 1.37004L9.00004 6.23004C9.11377 6.41712 9.2554 6.58573 9.42004 6.73004C9.3119 6.91533 9.15717 7.06911 8.97123 7.17612C8.78528 7.28313 8.57458 7.33964 8.36004 7.34004C8.31528 7.12607 8.2377 6.9203 8.13004 6.73004L5.29004 1.87004ZM8.19004 9.87004C8.07858 9.69962 8.01313 9.50325 8.00004 9.30004C7.99712 9.11632 8.03827 8.93458 8.12004 8.77004C8.18474 8.63573 8.23502 8.49495 8.27004 8.35004C8.66331 8.34528 9.04847 8.23751 9.38711 8.03749C9.72575 7.83746 10.006 7.55217 10.2 7.21004C10.3494 7.25744 10.5038 7.28764 10.66 7.30004C10.8632 7.3048 11.0618 7.36152 11.2369 7.4648C11.4119 7.56809 11.5576 7.71448 11.66 7.89004L14 12L12.79 13.53C12.7105 13.6307 12.5965 13.6984 12.47 13.72L10.57 14L8.19004 9.87004ZM19.26 21.35C19.244 21.413 19.2153 21.4721 19.1758 21.5236C19.1363 21.5752 19.0867 21.6182 19.03 21.65L16.44 23.15C16.3834 23.1855 16.3202 23.209 16.2542 23.2191C16.1882 23.2293 16.1208 23.2258 16.0562 23.2089C15.9916 23.1921 15.9311 23.1622 15.8784 23.1211C15.8258 23.08 15.7821 23.0286 15.75 22.97L11.12 14.97L12.67 14.75C13.0618 14.7025 13.4201 14.5055 13.67 14.2L14.67 12.98L19.3 20.98C19.3359 21.1038 19.3215 21.2368 19.26 21.35Z" fill="#FFC300"/>
</g>
</svg>
