<svg width="44" height="44" viewBox="0 0 44 44" fill="none" xmlns="http://www.w3.org/2000/svg">
<path d="M42.0878 21.6333L34.4731 4.32208C34.228 3.59577 33.761 2.96478 33.1379 2.51822C32.5149 2.07166 31.7673 1.83209 31.0007 1.83333H12.9992C12.2327 1.83209 11.4851 2.07166 10.8621 2.51822C10.239 2.96478 9.77199 3.59577 9.52691 4.32208L1.91216 21.6333C1.85136 21.7727 1.82615 21.9249 1.83882 22.0764C1.85149 22.2279 1.90163 22.3738 1.98473 22.5011C2.06783 22.6284 2.18128 22.733 2.31487 22.8056C2.44845 22.8781 2.59798 22.9163 2.74999 22.9167H6.87499C7.02428 22.9166 7.17129 22.8801 7.30325 22.8103C7.4352 22.7404 7.54811 22.6395 7.63216 22.5161L13.1633 14.4027C13.4383 15.4477 13.6501 16.2534 13.7491 16.6219V19.9907L5.56508 40.6083C5.51065 40.7472 5.49091 40.8972 5.50757 41.0453C5.52424 41.1935 5.57679 41.3354 5.66069 41.4587C5.74459 41.5819 5.85729 41.6829 5.98903 41.7527C6.12076 41.8226 6.26755 41.8593 6.41666 41.8596C8.92466 41.8596 8.95858 42.1667 11.6087 42.1667C14.2853 42.1667 14.3953 41.5525 16.8016 41.5525C19.1244 41.5525 19.3682 42.1667 21.9917 42.1667C24.6776 42.1667 24.7757 41.5525 27.1865 41.5525C29.5075 41.5525 29.7623 42.1667 32.3849 42.1667C35.0075 42.1667 35.0854 41.8596 37.5833 41.8596C37.733 41.8597 37.8804 41.8231 38.0126 41.7531C38.1449 41.6831 38.258 41.5818 38.3421 41.458C38.4262 41.3342 38.4787 41.1917 38.495 41.043C38.5114 40.8942 38.491 40.7438 38.4358 40.6047L30.25 19.9907V16.6219C30.349 16.2552 30.5635 15.4486 30.8357 14.4027L36.3669 22.5161C36.451 22.6396 36.5641 22.7407 36.6962 22.8105C36.8284 22.8803 36.9756 22.9167 37.125 22.9167H41.25C41.402 22.9163 41.5515 22.8781 41.6851 22.8056C41.8187 22.733 41.9322 22.6284 42.0153 22.5011C42.0984 22.3738 42.1485 22.2279 42.1612 22.0764C42.1738 21.9249 42.1486 21.7727 42.0878 21.6333ZM31.3775 3.72625C31.2079 5.5055 29.7357 11.4327 28.6275 15.5833H18.3095L27.0481 3.66667H31.0007C31.1281 3.67313 31.2544 3.6931 31.3775 3.72625ZM15.5833 19.25V17.4167H28.4167V19.25H15.5833ZM22.2466 7.11333L19.3737 3.66667H24.7738L22.2466 7.11333ZM16.9867 3.66667L21.1292 8.63683L16.0352 15.5833H15.3707C14.2642 11.4327 12.7921 5.5055 12.6207 3.72625C12.7444 3.69298 12.8713 3.673 12.9992 3.66667H16.9867ZM6.39099 21.0833H4.15524L11.0412 5.43217C11.3832 7.24258 11.9955 9.80008 12.5583 12.0367L6.39099 21.0833ZM7.75499 40.0583L15.2891 21.0833H17.9474L12.1559 40.3214C10.6845 40.341 9.2136 40.2531 7.75499 40.0583ZM14.1643 40.0097L19.8623 21.0833H21.0833L21.076 40.2994C19.7037 40.1894 17.4964 39.2324 14.1643 40.0097ZM22.9084 40.2976L22.9167 21.0833H24.1377L29.8366 40.0134C26.5063 39.2333 24.4337 40.1775 22.9084 40.2994V40.2976ZM31.8441 40.3196L26.0526 21.0833H28.7109L36.2459 40.0583C34.786 40.2426 33.3155 40.3305 31.8441 40.3214V40.3196ZM37.6081 21.0833L31.4417 12.0377C32.0045 9.801 32.6168 7.2435 32.9587 5.43308L39.8447 21.0833H37.6081Z" fill="url(#paint0_linear_12_30)"/>
<defs>
<linearGradient id="paint0_linear_12_30" x1="5.37258" y1="7.93925" x2="38.6274" y2="41.1941" gradientUnits="userSpaceOnUse">
<stop offset="1"/>
</linearGradient>
</defs>
</svg>
