<svg width="44" height="44" viewBox="0 0 44 44" fill="none" xmlns="http://www.w3.org/2000/svg">
<path d="M38.8224 43.2211C38.8183 43.1908 38.8245 43.1606 38.8155 43.1296L33.343 23.2952V20.6271C33.343 20.6209 33.3396 20.6161 33.3396 20.6106V11.6985C33.3396 11.6978 33.3389 11.6971 33.3389 11.6957C33.3389 11.6944 33.3403 11.6923 33.3403 11.6902C33.3403 11.3101 33.033 11.0027 32.6528 11.0027C31.1355 11.0027 29.9014 9.76869 29.9014 8.25137V0.697125C29.9014 0.316938 29.5941 0.009625 29.2139 0.009625H27.2002C27.1844 0.00825 27.1707 0 27.1542 0C27.1377 0 27.1239 0.00825 27.1081 0.009625H16.203C16.1872 0.00825 16.1734 0 16.1569 0C16.1404 0 16.1267 0.00825 16.1109 0.009625H14.093C14.0917 0.009625 14.0903 0.0103125 14.0896 0.0103125C14.0882 0.0103125 14.0869 0.009625 14.0855 0.009625C13.7053 0.009625 13.398 0.316938 13.398 0.697125V8.25137C13.398 8.25206 13.3987 8.25275 13.3987 8.25344C13.3973 9.77006 12.1639 11.0027 10.6473 11.0027C10.2671 11.0027 9.95979 11.3101 9.95979 11.6902C9.95979 11.6916 9.96048 11.693 9.96048 11.6944C9.96048 11.6958 9.95979 11.6971 9.95979 11.6985V20.6291C9.95979 20.6415 9.96598 20.6504 9.96667 20.6628V23.2657L5.17823 43.1516C5.17136 43.1798 5.17823 43.2066 5.17479 43.2348C5.17204 43.2616 5.15967 43.285 5.15967 43.3125C5.15967 43.3318 5.16929 43.3482 5.17067 43.3668C5.17479 43.4142 5.18511 43.4589 5.19886 43.5043C5.21123 43.5462 5.22292 43.5847 5.24286 43.6232C5.26279 43.6624 5.28754 43.6961 5.31504 43.7312C5.34254 43.7663 5.36936 43.7986 5.40304 43.8274C5.43536 43.8556 5.47179 43.8769 5.50892 43.8989C5.54948 43.9216 5.58867 43.9423 5.63404 43.9567C5.65192 43.9629 5.66636 43.9759 5.68561 43.9808C5.73992 43.9938 5.79286 44 5.84648 44C5.84648 44 5.84648 44 5.84717 44H38.1528C38.1535 44 38.1535 44 38.1542 44C38.2147 43.9993 38.2752 43.9918 38.3357 43.9753C38.3501 43.9711 38.3611 43.9608 38.3755 43.9553C38.4216 43.9395 38.4615 43.9161 38.5027 43.8914C38.5399 43.8694 38.5749 43.8488 38.6065 43.8213C38.6395 43.7917 38.6643 43.7573 38.6911 43.7223C38.7179 43.6865 38.7447 43.6528 38.764 43.6136C38.7825 43.5758 38.7922 43.5366 38.8039 43.4954C38.8176 43.4493 38.8286 43.4046 38.832 43.3558C38.8327 43.3407 38.841 43.3276 38.841 43.3125C38.8403 43.2802 38.8265 43.2527 38.8224 43.2211ZM6.88598 41.9375H37.061L37.2501 42.625H6.71961L6.88598 41.9375ZM16.7337 19.9506L19.8007 21.0987C19.6687 21.3709 19.5869 21.6728 19.5869 21.9952C19.5869 22.319 19.668 22.6208 19.802 22.8937L16.7324 24.0542C16.0215 24.0027 15.457 23.4128 15.457 22.6896V21.3159C15.4564 20.5906 16.0222 20.0014 16.7337 19.9506ZM26.5519 19.9506C27.2628 20.0021 27.8272 20.592 27.8272 21.3152V22.6889C27.8272 23.4128 27.2635 24.0013 26.5526 24.0536L23.4994 22.8882C23.6307 22.6167 23.7119 22.3163 23.7119 21.9945C23.7119 21.6741 23.6321 21.3744 23.5008 21.1028L26.5519 19.9506ZM31.968 21.3152V22.6834H29.2029V21.3152H31.968ZM21.6494 21.307C22.0289 21.307 22.3369 21.615 22.3369 21.9945C22.3369 22.374 22.0289 22.682 21.6494 22.682C21.2699 22.682 20.9619 22.374 20.9619 21.9945C20.9619 21.615 21.2699 21.307 21.6494 21.307ZM14.0814 22.6834H11.3417V21.3152H14.0814V22.6834ZM11.1904 24.0584H14.4609C14.9366 24.8792 15.8159 25.4389 16.8314 25.4389C16.9125 25.4389 16.9943 25.4244 17.0747 25.3949L20.9529 23.9278C21.1715 24.0068 21.4039 24.057 21.65 24.057C21.8996 24.057 22.1354 24.0061 22.3568 23.9243L26.2082 25.3942C26.2886 25.4251 26.3711 25.4389 26.4529 25.4389C27.469 25.4389 28.3477 24.8799 28.8234 24.0584H32.1275L36.6809 40.5625H7.21667L11.1904 24.0584ZM26.4103 1.38462C26.0707 3.70769 24.0714 5.49863 21.6555 5.49863C19.2397 5.49863 17.2404 3.70769 16.9008 1.38462H26.4103ZM14.7737 8.25137C14.7737 8.25 14.773 8.24931 14.773 8.24794V1.38462H15.5114C15.8585 4.46875 18.4793 6.87363 21.6555 6.87363C24.8318 6.87363 27.4525 4.46875 27.7997 1.38462H28.5271V8.25137C28.5271 10.2919 30.0169 11.9866 31.9653 12.3152V19.9402H28.82C28.3511 19.1352 27.4938 18.5872 26.501 18.5701C26.4894 18.5694 26.479 18.5673 26.4674 18.5666C26.4625 18.5666 26.4577 18.5652 26.4529 18.5652C26.413 18.5652 26.3794 18.5811 26.3409 18.5879C26.2975 18.5955 26.2529 18.5928 26.2102 18.6093L22.3582 20.0647C22.1368 19.9836 21.8996 19.932 21.65 19.932C21.4046 19.932 21.1722 19.9822 20.9536 20.0613L17.0727 18.6086C17.0342 18.5941 16.9964 18.5969 16.9572 18.5907C16.9145 18.5824 16.876 18.5652 16.8314 18.5652C16.8238 18.5652 16.8176 18.5673 16.8107 18.5673C16.8039 18.5673 16.7963 18.5694 16.7901 18.5694C15.7946 18.5845 14.9345 19.1338 14.4643 19.9402H11.3348V12.3159C13.2832 11.9872 14.7737 10.2919 14.7737 8.25137Z" fill="black"/>
</svg>
