<svg width="38" height="38" viewBox="0 0 38 38" fill="none" xmlns="http://www.w3.org/2000/svg">
<path d="M26.2081 10.1888C26.441 10.0701 26.6652 9.93517 26.8791 9.78504C28.6128 8.56786 29.1472 6.32942 28.0666 4.79754C26.986 3.26567 24.706 3.01629 22.9722 4.24536C21.2385 5.47442 20.3478 7.64754 19.38 10.1829L26.2081 10.1888ZM5.16565 18.0857H32.8403V32.1575C32.8403 32.7874 32.5901 33.3915 32.1447 33.8369C31.6993 34.2823 31.0952 34.5325 30.4653 34.5325H7.54065C6.91076 34.5325 6.30667 34.2823 5.86127 33.8369C5.41587 33.3915 5.16565 32.7874 5.16565 32.1575V18.0857Z" stroke="#FFC300" stroke-width="3" stroke-linecap="round" stroke-linejoin="round"/>
<path d="M22.4735 18.0856H15.5266V34.5324H22.4735V18.0856Z" stroke="#FFC300" stroke-width="3" stroke-linecap="round" stroke-linejoin="round"/>
<path d="M11.7919 10.1888C11.5603 10.0714 11.3379 9.9364 11.1269 9.78504C9.39316 8.56786 8.85284 6.32942 9.93941 4.79754C11.026 3.26567 13.3 3.01629 15.0397 4.24536C16.7794 5.47442 17.6582 7.64754 18.6319 10.1829L11.7919 10.1888Z" stroke="#FFC300" stroke-width="3" stroke-linecap="round" stroke-linejoin="round"/>
<path d="M32.3594 10.1887H5.64062C4.65687 10.1887 3.85938 10.9862 3.85938 11.97V16.3043C3.85938 17.2881 4.65687 18.0856 5.64062 18.0856H32.3594C33.3431 18.0856 34.1406 17.2881 34.1406 16.3043V11.97C34.1406 10.9862 33.3431 10.1887 32.3594 10.1887Z" stroke="#FFC300" stroke-width="3" stroke-linecap="round" stroke-linejoin="round"/>
<path d="M23.1088 10.1887H14.8972V18.0856H23.1088V10.1887Z" stroke="#FFC300" stroke-width="3" stroke-linecap="round" stroke-linejoin="round"/>
</svg>
