<svg width="16" height="15" viewBox="0 0 16 15" fill="none" xmlns="http://www.w3.org/2000/svg">
<path d="M14.7318 4.85937L10.6356 4.26301L8.80516 0.55811C8.64061 0.227051 8.31962 0.0597019 7.99864 0.0597019C7.67961 0.0597019 7.36087 0.224812 7.19576 0.55811L5.36471 4.26273L1.26831 4.85853C0.533706 4.96487 0.239307 5.8685 0.771857 6.38621L3.73516 9.26864L3.03386 13.3399C2.93424 13.9214 3.39851 14.3879 3.91846 14.3879C4.05643 14.3879 4.19831 14.3551 4.3346 14.2829L7.9992 12.361L11.6635 14.2835C11.7995 14.3549 11.9411 14.3873 12.0785 14.3873C12.5991 14.3873 13.0642 13.9225 12.9645 13.3407L12.2641 9.2692L15.2279 6.38733C15.7608 5.86962 15.4664 4.96571 14.7318 4.85937ZM11.3249 8.30709L10.8178 8.80018L10.9376 9.49644L11.4839 12.6713L8.62578 11.1716L7.99948 10.8431L8.00032 1.96658L9.42838 4.85713L9.74125 5.49042L10.4411 5.59229L13.6378 6.05767L11.3249 8.30709Z" fill="#F8B84E"/>
</svg>
