<svg width="52" height="56" viewBox="0 0 52 56" fill="none" xmlns="http://www.w3.org/2000/svg">
<path d="M49.8544 20.6626C48.8211 19.2685 47.2809 18.4688 45.6316 18.4688H36.7089V11.6605C36.7089 5.23049 31.9098 0 25.9878 0C20.0858 0 15.2866 5.23049 15.2866 11.6605V18.4688H6.36396C4.71456 18.4688 3.17446 19.2685 2.1411 20.6626C1.10774 22.0567 0.720233 23.8614 1.07793 25.6121L6.11555 50.6946C6.13543 50.8135 6.16523 50.9216 6.19504 51.0297C6.85083 53.5476 8.9871 55.3308 11.4016 55.3308H40.5939C43.1177 55.3308 45.3434 53.3855 45.8899 50.6946L50.9176 25.6121C51.2753 23.8614 50.8878 22.0567 49.8544 20.6626ZM35.6457 24.6827H35.6557C36.3909 24.6935 36.9871 25.3419 36.9871 26.1308C36.9871 26.9521 36.4009 27.5789 35.6557 27.5789C34.9204 27.5789 34.3242 26.9305 34.3242 26.1308C34.3143 25.3419 34.9105 24.6935 35.6457 24.6827ZM17.403 11.6605C17.403 6.50569 21.2582 2.30185 25.9878 2.30185C30.7274 2.30185 34.5925 6.49488 34.5925 11.6605V18.4688H17.403V11.6605ZM16.3398 24.6827H16.3498C17.085 24.6935 17.6812 25.3419 17.6812 26.1308C17.6812 26.9305 17.085 27.5789 16.3498 27.5789C15.6046 27.5789 15.0084 26.9305 15.0084 26.1308C14.9985 25.3419 15.6046 24.6935 16.3398 24.6827ZM43.8132 50.2083C43.4853 51.8402 42.1241 53.0289 40.5939 53.0289H11.4016C9.86147 53.0289 8.51016 51.8402 8.18227 50.2083L7.15885 45.0967H44.8367L43.8132 50.2083ZM48.8509 25.1258L45.3037 42.7949H6.70178L3.14465 25.1258C2.92605 24.0559 3.16452 22.9536 3.80043 22.1107C4.42641 21.2678 5.36041 20.7706 6.36396 20.7706H15.2866V22.5646C13.8955 23.0509 12.8821 24.4666 12.8821 26.1416C12.8821 28.2165 14.4321 29.9024 16.3498 29.9024C18.2476 29.9024 19.8075 28.2165 19.8075 26.1416C19.8075 24.4666 18.804 23.0617 17.4129 22.5646V20.7706H34.6024V22.5646C33.2114 23.0509 32.2078 24.4774 32.2078 26.1416C32.2078 28.2165 33.7579 29.9024 35.6656 29.9024C37.5634 29.9024 39.1234 28.2165 39.1234 26.1416C39.1234 24.4666 38.1198 23.0509 36.7288 22.5646V20.7706H45.6514C46.655 20.7706 47.589 21.257 48.2149 22.1107C48.831 22.9536 49.0695 24.0559 48.8509 25.1258Z" fill="black"/>
</svg>
