<svg width="44" height="44" viewBox="0 0 44 44" fill="none" xmlns="http://www.w3.org/2000/svg">
<path d="M22.6243 19.4666C22.4623 19.4666 22.3227 19.3445 22.3046 19.18C22.2419 18.6188 22.1121 18.1539 21.9085 17.7586C21.8569 17.6585 21.7972 17.5562 21.731 17.4539C21.6549 17.337 21.5707 17.2185 21.4732 17.0917C21.3378 16.9155 21.1896 16.7402 21.0465 16.5705L21.0332 16.5546C19.2972 14.5011 17.3658 12.5924 15.4472 11.034C15.3751 10.9751 15.3317 10.8883 15.3282 10.7951C15.3248 10.7022 15.3622 10.612 15.4301 10.5484C15.6608 10.3323 15.9001 10.129 16.1532 9.9142C16.3951 9.70881 16.6418 9.49955 16.8841 9.27482C16.4974 9.28385 16.1017 9.28986 15.6995 9.27912C15.5998 9.27654 15.5065 9.22756 15.4477 9.14677C15.3888 9.06599 15.3708 8.96244 15.3987 8.86662C15.9169 7.089 16.0686 6.71302 16.8132 5.96881C17.4199 5.36166 18.2351 4.57662 19.1585 3.88955C19.2848 3.79588 19.4601 3.80662 19.5735 3.91533C19.687 4.02404 19.7059 4.19892 19.6178 4.32869C19.2977 4.80134 19.2418 5.37326 19.2517 5.76986C19.2547 5.89533 19.2642 6.02638 19.2805 6.15916C19.329 6.57295 19.4326 6.98802 19.5344 7.37775C19.9615 9.00884 20.3758 10.2128 21.0878 12.1395C21.135 12.2672 21.1827 12.3961 21.2313 12.5258C21.6034 13.527 21.9879 14.5621 22.3115 15.7231C22.4159 16.0974 22.5092 16.4687 22.5887 16.8262C22.7618 17.6078 22.8791 18.3558 22.9466 19.1138C22.962 19.2895 22.8336 19.4455 22.6578 19.4631C22.6462 19.4661 22.6351 19.4666 22.6243 19.4666ZM16.1433 10.7727C17.9966 12.3101 19.8511 14.1591 21.5252 16.1391L21.5385 16.155C21.6442 16.2804 21.7529 16.4085 21.859 16.54C21.807 16.3286 21.7508 16.1137 21.6906 15.898C21.3744 14.7628 20.9945 13.7406 20.6267 12.7519C20.5781 12.6212 20.5304 12.4923 20.4828 12.3643C19.7635 10.4174 19.3445 9.1992 18.9105 7.54232C18.8027 7.13068 18.6931 6.69068 18.6403 6.2365C18.6218 6.08439 18.6106 5.93271 18.6072 5.78662C18.6016 5.55931 18.6153 5.33974 18.6471 5.13006C18.1216 5.58467 17.6528 6.04142 17.2687 6.42556C16.6972 6.99662 16.5515 7.25013 16.1369 8.64103C16.4854 8.64189 16.8274 8.63244 17.163 8.62384C17.3366 8.61955 17.5063 8.61525 17.6709 8.61224C17.7989 8.61095 17.9167 8.684 17.9699 8.80088C18.0232 8.91775 18.0017 9.05482 17.9158 9.15021C17.4775 9.63619 17.016 10.0276 16.57 10.4062C16.4231 10.5317 16.2808 10.6524 16.1433 10.7727Z" fill="black"/>
<path d="M18.3928 38.0862C17.9266 38.0862 17.4776 38.0523 17.0999 38.0162C15.9199 37.9027 14.737 37.6582 13.6344 37.4103L13.7758 36.7813C14.8578 37.0245 16.0171 37.2642 17.1613 37.3742C17.6473 37.4211 19.1267 37.5629 20.0716 37.1985C20.7471 36.9381 21.3009 36.4319 21.7186 35.6937C21.9326 35.3156 22.1092 34.8786 22.2428 34.3952C22.5848 33.1594 22.5848 31.7784 22.5844 30.4425V30.3239C22.5844 26.3923 22.4929 23.3643 22.3451 19.7536L22.3438 19.7214C22.3339 19.5396 22.3206 19.3557 22.3038 19.1727C22.2879 18.9969 22.4164 18.8409 22.5921 18.8229C22.7679 18.8048 22.9251 18.9316 22.9449 19.1073C22.9655 19.29 22.9801 19.4863 22.9874 19.6913L22.9883 19.7063H22.9879L22.9887 19.727C23.137 23.3462 23.2289 26.3811 23.2289 30.3239V30.4425C23.2294 31.8214 23.2298 33.2466 22.8641 34.5671C22.7163 35.1012 22.5195 35.5872 22.2797 36.0108C21.7869 36.8827 21.1217 37.4842 20.3036 37.7996C19.7343 38.0196 19.0472 38.0862 18.3928 38.0862ZM14.0083 29.4929L13.4003 29.2793C14.1973 27.008 14.9037 24.784 14.7976 22.5526C14.7349 21.2304 13.979 18.6403 13.7487 17.878L14.3658 17.6915C14.6678 18.6914 15.3768 21.1638 15.4413 22.5216C15.553 24.8695 14.8268 27.1588 14.0083 29.4929ZM11.4125 8.64016L11.1573 8.04848C12.815 7.33305 14.5621 6.84407 16.3505 6.59485L16.4394 7.23336C14.7082 7.47442 13.017 7.94793 11.4125 8.64016Z" fill="black"/>
<path d="M10.7637 40.7292C10.4551 40.7292 10.1428 40.7228 9.81791 40.7047C9.64432 40.6953 9.50982 40.5496 9.51369 40.376C9.57428 37.6539 9.57943 34.2607 9.58459 30.6685C9.59275 25.4401 9.60092 20.0333 9.7758 15.7824C9.87076 13.4707 10.0048 11.7451 10.1857 10.5063C10.4212 8.89324 10.7134 8.17738 11.1938 8.03558C11.3635 7.98531 11.5418 8.08156 11.5934 8.25086C12.0347 9.70363 12.3694 10.9076 12.6925 12.0725C13.1188 13.6069 13.5214 15.0567 14.1238 16.9194C14.199 17.1518 14.2802 17.4118 14.3649 17.6915C14.3739 17.7216 14.3786 17.7534 14.3786 17.7848C14.3786 17.8024 14.3773 17.8204 14.3743 17.838C14.0452 19.8172 14.0456 23.1494 14.0456 25.1402V25.263C14.0456 26.8129 14.0362 28.1621 14.0258 29.3889L14.0185 30.2264C13.9975 32.5578 13.9794 34.5718 14.0267 37.0902C14.046 38.1245 14.0753 39.1905 14.1165 40.3494C14.1195 40.4379 14.086 40.5238 14.0241 40.587C13.9618 40.6502 13.8776 40.6841 13.7882 40.6832C13.1596 40.6708 12.5774 40.688 12.014 40.7047C11.5908 40.7172 11.1804 40.7292 10.7637 40.7292ZM10.1642 40.0748C10.7847 40.0959 11.3751 40.0787 11.9951 40.0602C12.4644 40.0464 12.946 40.0318 13.4608 40.0344C13.4256 39.001 13.3998 38.0385 13.3826 37.1018C13.3353 34.5744 13.3534 32.5566 13.3744 30.2199L13.3817 29.3829C13.3921 28.1574 13.4015 26.8099 13.4015 25.2622V25.1393C13.4015 23.1528 13.4011 19.8447 13.7268 17.8062C13.6512 17.5575 13.5785 17.3263 13.5111 17.1175C12.9044 15.2414 12.5 13.7857 12.0716 12.2444C11.7958 11.2514 11.5117 10.2291 11.1607 9.05008C11.0541 9.34871 10.9235 9.86691 10.7997 10.7662C10.6292 12.0055 10.5024 13.7139 10.4122 15.9895C10.245 20.2022 10.2369 25.523 10.2291 30.6689C10.2235 34.1275 10.2188 37.4017 10.1642 40.0748ZM22.5289 17.0943L22.0176 16.7015C22.1646 16.5103 22.3205 16.3255 22.4713 16.1472L22.4748 16.1429C24.148 14.1634 26.0021 12.3148 27.8566 10.7761C27.7196 10.6558 27.5778 10.5351 27.4308 10.4105C26.9844 10.0315 26.5229 9.64004 26.0842 9.15363C25.9982 9.05824 25.9772 8.92117 26.0304 8.80429C26.0829 8.68914 26.1976 8.61566 26.3235 8.61566C26.3256 8.61566 26.3274 8.61566 26.3295 8.61566C26.4906 8.61867 26.6574 8.62297 26.8271 8.62726C27.1661 8.63586 27.5146 8.64445 27.8631 8.64488C27.4484 7.25398 27.3028 7.00047 26.7313 6.42898C26.3471 6.04484 25.8779 5.58808 25.3528 5.13347C25.3846 5.34316 25.3984 5.56273 25.3928 5.79004C25.3898 5.91679 25.3808 6.04613 25.367 6.17504L24.7263 6.10543C24.7384 5.99414 24.7461 5.88285 24.7487 5.77414C24.7581 5.37754 24.7027 4.80519 24.3826 4.33254C24.2945 4.20234 24.313 4.02746 24.4269 3.91875C24.5403 3.81004 24.716 3.79929 24.8419 3.89297C25.7649 4.58004 26.58 5.36508 27.1872 5.97222C27.9318 6.71687 28.0835 7.09285 28.6017 8.87004C28.6296 8.96586 28.6116 9.06941 28.5527 9.15019C28.4938 9.23097 28.4006 9.27996 28.3009 9.28254C27.8987 9.29328 27.5026 9.28726 27.1163 9.27824C27.359 9.50297 27.6057 9.71265 27.8476 9.91804C28.1007 10.1329 28.3396 10.3357 28.5703 10.5518C28.6382 10.6154 28.6752 10.7052 28.6722 10.7985C28.6687 10.8913 28.6258 10.9785 28.5531 11.0374C26.6333 12.5967 24.7019 14.5058 22.9672 16.558L22.9638 16.5623C22.8177 16.7359 22.6669 16.9146 22.5289 17.0943Z" fill="black"/>
<path d="M19.4812 4.44638L19.2173 3.85814C20.9692 3.07224 23.0493 3.07138 24.7814 3.85556L24.5154 4.44251C22.9492 3.73353 21.0672 3.73482 19.4812 4.44638ZM25.6072 38.0896C24.9528 38.0896 24.2653 38.023 23.6964 37.8034C22.8761 37.4876 22.211 36.8843 21.7186 36.0108L22.2802 35.6941C22.6974 36.434 23.2517 36.9411 23.9284 37.2019C24.8738 37.5667 26.3527 37.4245 26.8391 37.3776C27.9825 37.2676 29.1418 37.0279 30.2247 36.7847L30.366 37.4137C29.263 37.6612 28.0797 37.9061 26.901 38.0196C26.5225 38.0561 26.0734 38.0896 25.6072 38.0896ZM29.9918 29.495C29.1728 27.1614 28.447 24.8724 28.5592 22.525C28.6236 21.1664 29.333 18.6944 29.6351 17.6949L30.2522 17.8814C30.0218 18.6437 29.2656 21.233 29.2029 22.556C29.0967 24.7874 29.8031 27.011 30.6002 29.2819L29.9918 29.495ZM32.5875 8.64357C30.9831 7.95134 29.2918 7.47782 27.561 7.23634L27.65 6.59782C29.4383 6.84704 31.1854 7.33603 32.8432 8.05146L32.5875 8.64357Z" fill="black"/>
<path d="M33.2393 40.7327C32.8213 40.7327 32.4109 40.7206 31.9868 40.7077C31.4235 40.691 30.8408 40.6738 30.2122 40.6863C30.21 40.6863 30.2079 40.6863 30.2057 40.6863C30.1194 40.6863 30.0369 40.6514 29.9763 40.59C29.914 40.5268 29.8809 40.4409 29.8839 40.3524C29.9247 39.1935 29.9544 38.1275 29.9737 37.0932C30.021 34.5739 30.0029 32.5604 29.9819 30.2285L29.9746 29.3906C29.9643 28.1634 29.9548 26.8146 29.9548 25.2661V25.1427C29.9548 23.152 29.9552 19.8198 29.6265 17.8402C29.6184 17.7916 29.6218 17.7418 29.636 17.6945C29.7176 17.423 29.7988 17.163 29.877 16.9215C30.4795 15.0588 30.8821 13.6095 31.3083 12.0751C31.6319 10.9102 31.9666 9.70578 32.4079 8.25344C32.4595 8.08414 32.6378 7.98789 32.8075 8.03817C33.2879 8.17996 33.5796 8.89582 33.8155 10.5089C33.9964 11.7472 34.1305 13.4733 34.2255 15.785C34.4004 20.0359 34.4085 25.4427 34.4167 30.6711C34.4223 34.2633 34.4274 37.6561 34.4876 40.3786C34.4914 40.5522 34.357 40.6979 34.1834 40.7073C33.8585 40.7258 33.547 40.7327 33.2393 40.7327ZM30.6522 40.0374C31.1248 40.0374 31.5709 40.0507 32.0057 40.0636C32.6253 40.0821 33.2157 40.0997 33.8357 40.0782C33.7816 37.4052 33.7764 34.1309 33.7713 30.6728C33.7636 25.5269 33.7554 20.2061 33.5882 15.9934C33.498 13.7178 33.3712 12.0093 33.2007 10.7701C33.0769 9.87078 32.9463 9.35258 32.8397 9.05395C32.4887 10.233 32.2046 11.2552 31.9288 12.2482C31.5008 13.7895 31.0961 15.2453 30.4898 17.1205C30.4197 17.3366 30.3475 17.5682 30.2745 17.8097C30.5998 19.8481 30.5993 23.1567 30.5993 25.1432V25.2665C30.5993 26.8129 30.6088 28.16 30.6191 29.3859L30.6264 30.2234C30.6475 32.56 30.6655 34.5774 30.6182 37.1057C30.6006 38.042 30.5753 39.0045 30.54 40.0379C30.577 40.0374 30.6144 40.0374 30.6522 40.0374ZM25.0469 6.14067C25.0001 6.58754 24.8918 7.02883 24.7779 7.46453C24.3289 9.17813 23.885 10.4448 23.2152 12.2564C22.8143 13.3414 22.3631 14.5123 22.0004 15.8116C21.6378 14.5105 21.1862 13.3388 20.7848 12.253C20.1154 10.4414 19.6711 9.17512 19.2221 7.46109C19.1134 7.04559 19.0098 6.62535 18.96 6.19953C21.0074 5.41149 23.0042 5.44285 25.0469 6.14067Z" fill="black"/>
<path d="M22.0004 16.1339C21.8556 16.1339 21.7289 16.0377 21.6902 15.898C21.3739 14.7632 20.9941 13.7406 20.6267 12.7523C20.5781 12.6217 20.5305 12.4927 20.4828 12.3647C19.7635 10.4178 19.3445 9.19962 18.9105 7.54274C18.8027 7.1311 18.6931 6.6911 18.6403 6.23692C18.6231 6.09083 18.7073 5.95161 18.8444 5.89876C20.8983 5.10814 22.9612 5.08751 25.1513 5.8356C25.2935 5.88415 25.3833 6.02466 25.3674 6.17419C25.3176 6.65028 25.2029 7.11306 25.0899 7.54575C24.6537 9.20993 24.2356 10.4264 23.5176 12.3681C23.4699 12.497 23.4218 12.6272 23.3728 12.7587C23.0063 13.7457 22.6269 14.7662 22.3111 15.8984C22.272 16.0377 22.1452 16.1339 22.0004 16.1339ZM19.3157 6.41181C19.3703 6.74138 19.4528 7.06837 19.534 7.37946C19.9611 9.01056 20.3753 10.2145 21.0873 12.1413C21.1346 12.2689 21.1823 12.3978 21.2308 12.5275C21.4895 13.2241 21.7546 13.9374 22.0008 14.6975C22.2466 13.9395 22.5105 13.2284 22.7687 12.534C22.8172 12.4029 22.8658 12.2732 22.9131 12.1447C23.6238 10.2231 24.0371 9.02044 24.4664 7.3829C24.5519 7.05505 24.6387 6.71001 24.6928 6.36368C22.8297 5.77802 21.0654 5.79392 19.3157 6.41181ZM17.0233 27.3806C16.5189 27.2761 15.9874 27.1515 15.4735 27.0312L14.5479 26.8138L14.6957 26.1865L15.6204 26.4039C16.1305 26.5233 16.6572 26.6467 17.154 26.7498L17.0233 27.3806ZM26.9766 27.3806L26.846 26.7493C27.3423 26.6467 27.8695 26.5229 28.3796 26.4034L28.4294 26.3918C28.7212 26.3235 29.0125 26.2548 29.3038 26.186L29.4521 26.8134C29.1607 26.8821 28.8685 26.9509 28.5768 27.0192L28.5269 27.0308C28.0126 27.1515 27.4811 27.2761 26.9766 27.3806Z" fill="black"/>
<path d="M21.0336 21.0659C20.8085 21.0659 20.6254 20.8828 20.6254 20.6577C20.6254 20.4325 20.8085 20.2495 21.0336 20.2495C21.2588 20.2495 21.4418 20.4325 21.4418 20.6577C21.4418 20.8828 21.2588 21.0659 21.0336 21.0659ZM21.0336 20.4213C20.9034 20.4213 20.7973 20.5275 20.7973 20.6577C20.7973 20.7878 20.9034 20.894 21.0336 20.894C21.1638 20.894 21.27 20.7878 21.27 20.6577C21.27 20.5275 21.1638 20.4213 21.0336 20.4213Z" fill="black"/>
<path d="M21.27 26.308C21.0448 26.308 20.8618 26.125 20.8618 25.8998C20.8618 25.6747 21.0448 25.4916 21.27 25.4916C21.4951 25.4916 21.6782 25.6747 21.6782 25.8998C21.6782 26.125 21.4951 26.308 21.27 26.308ZM21.27 25.6635C21.1398 25.6635 21.0336 25.7696 21.0336 25.8998C21.0336 26.03 21.1398 26.1362 21.27 26.1362C21.4002 26.1362 21.5063 26.03 21.5063 25.8998C21.5063 25.7696 21.4002 25.6635 21.27 25.6635Z" fill="black"/>
<path d="M42.6103 43.3692C42.5935 43.3692 42.5799 43.3556 42.5799 43.3388V43.2381C42.5799 43.2213 42.5935 43.2077 42.6103 43.2077C42.6271 43.2077 42.6408 43.2213 42.6408 43.2381V43.3388C42.6408 43.3556 42.6271 43.3692 42.6103 43.3692ZM42.6103 42.0147C42.5935 42.0147 42.5799 42.0011 42.5799 41.9843V41.882C42.5799 41.8652 42.5935 41.8516 42.6103 41.8516C42.6271 41.8516 42.6408 41.8652 42.6408 41.882V41.9843C42.6408 42.0011 42.6271 42.0147 42.6103 42.0147ZM43.3388 42.6409H43.2365C43.2197 42.6409 43.2061 42.6273 43.2061 42.6105C43.2061 42.5936 43.2197 42.58 43.2365 42.58H43.3388C43.3556 42.58 43.3692 42.5936 43.3692 42.6105C43.3692 42.6273 43.3556 42.6409 43.3388 42.6409ZM41.9841 42.6409H41.882C41.8651 42.6409 41.8516 42.6273 41.8516 42.6105C41.8516 42.5936 41.8652 42.58 41.882 42.58H41.9841C42.001 42.58 42.0146 42.5936 42.0146 42.6105C42.0145 42.6273 42.0009 42.6409 41.9841 42.6409ZM42.2476 43.2731C42.2424 43.2731 42.2373 43.2718 42.2326 43.2691C42.2179 43.2608 42.2128 43.2422 42.2211 43.2276L42.2714 43.1387C42.2797 43.124 42.2983 43.119 42.3129 43.1272C42.3276 43.1355 42.3327 43.1541 42.3244 43.1687L42.2741 43.2576C42.2685 43.2675 42.2582 43.2731 42.2476 43.2731ZM42.9226 42.0975C42.9175 42.0975 42.9122 42.0962 42.9075 42.0934C42.8929 42.0851 42.8879 42.0664 42.8963 42.0518L42.9467 41.9645C42.955 41.95 42.9736 41.9448 42.9883 41.9533C43.0028 41.9616 43.0079 41.9803 42.9994 41.9949L42.9491 42.0822C42.9434 42.092 42.9332 42.0975 42.9226 42.0975ZM41.9604 42.9696C41.9493 42.9696 41.9386 42.9635 41.9332 42.9529C41.9256 42.9379 41.9316 42.9196 41.9466 42.9119L42.0369 42.8661C42.0519 42.8584 42.0702 42.8644 42.0779 42.8794C42.0855 42.8944 42.0795 42.9127 42.0646 42.9203L41.9742 42.9662C41.9698 42.9685 41.965 42.9696 41.9604 42.9696ZM43.17 42.3581C43.1589 42.3581 43.1482 42.352 43.1428 42.3414C43.1352 42.3264 43.1412 42.3081 43.1562 42.3005L43.2465 42.2546C43.2615 42.247 43.2798 42.253 43.2875 42.268C43.2951 42.283 43.2891 42.3013 43.2741 42.3089L43.1838 42.3548C43.1793 42.357 43.1746 42.3581 43.17 42.3581ZM42.973 43.2731C42.9624 43.2731 42.9521 43.2675 42.9465 43.2576L42.8962 43.1688C42.8879 43.1541 42.893 43.1356 42.9077 43.1273C42.9222 43.119 42.9409 43.1241 42.9492 43.1387L42.9996 43.2276C43.0079 43.2422 43.0027 43.2608 42.9881 43.2691C42.9833 43.2717 42.9782 43.2731 42.973 43.2731ZM42.298 42.0975C42.2874 42.0975 42.2772 42.092 42.2716 42.0823L42.2212 41.9949C42.2128 41.9803 42.2178 41.9617 42.2324 41.9533C42.247 41.9449 42.2656 41.95 42.274 41.9645L42.3243 42.0519C42.3328 42.0664 42.3277 42.0851 42.3132 42.0935C42.3084 42.0962 42.3031 42.0975 42.298 42.0975ZM43.2603 42.9696C43.2557 42.9696 43.2509 42.9685 43.2465 42.9663L43.1562 42.9204C43.1412 42.9127 43.1352 42.8944 43.1428 42.8794C43.1504 42.8644 43.1688 42.8585 43.1838 42.8661L43.2741 42.912C43.2891 42.9196 43.2951 42.9379 43.2875 42.9529C43.2821 42.9635 43.2714 42.9696 43.2603 42.9696ZM42.0507 42.3581C42.0461 42.3581 42.0414 42.357 42.0369 42.3548L41.9466 42.3089C41.9316 42.3013 41.9256 42.283 41.9332 42.268C41.9409 42.253 41.9592 42.2471 41.9742 42.2546L42.0645 42.3005C42.0795 42.3081 42.0855 42.3265 42.0778 42.3414C42.0725 42.352 42.0618 42.3581 42.0507 42.3581ZM42.6103 42.7178C42.6073 42.7178 42.6042 42.7173 42.6013 42.7164C42.5886 42.7124 42.5799 42.7007 42.5799 42.6873V42.1455C42.5799 42.1286 42.5935 42.115 42.6103 42.115C42.6271 42.115 42.6408 42.1286 42.6408 42.1455V42.5899L42.7614 42.4154C42.771 42.4016 42.79 42.3982 42.8038 42.4077C42.8176 42.4172 42.8211 42.4362 42.8115 42.45L42.6354 42.7047C42.6296 42.713 42.6201 42.7178 42.6103 42.7178Z" fill="black"/>
</svg>
