<svg width="36" height="53" viewBox="0 0 36 53" fill="none" xmlns="http://www.w3.org/2000/svg">
<path d="M12.354 6.438L6.81299 15.056M18.133 19.546C18.191 19.631 18.37 19.903 18.426 19.997C22.74 27.226 24.557 51.771 24.557 51.771C28.563 51.913 34.328 50.687 34.328 50.687L30.611 23.71L29.241 15.054L27.683 5.227L27.06 1.747C27.06 1.747 24.625 2.892 18.256 3.033H17.913C11.545 2.891 8.97299 1.76 8.97299 1.76L8.35599 5.154L5.28299 24.125L1.56699 50.966C1.56699 50.966 7.60799 51.914 11.615 51.772C11.615 51.772 13.43 27.229 17.747 19.999C17.803 19.905 17.98 19.633 18.039 19.548L18.133 19.546Z" stroke="#494949" stroke-width="1.5" stroke-miterlimit="10" stroke-linecap="round" stroke-linejoin="round"/>
<path d="M16.924 16.722L18.039 19.497M16.924 16.722C19.07 15.49 18.096 6.63901 18.096 6.63901H18.436C18.436 6.63901 19.583 6.66001 21.139 6.55401C21.139 6.55401 23.083 17.563 17.618 16.989L16.924 16.722ZM29.241 15.055L28.332 9.32001L27.673 5.15601C26.496 5.69801 24.948 6.10001 23.524 6.30601L29.241 15.055ZM6.81299 15.055L7.72099 9.32001L8.38199 5.15601C9.55899 5.69801 11.105 6.10001 12.531 6.30601L6.81299 15.055Z" stroke="#494949" stroke-width="1.5" stroke-miterlimit="10" stroke-linecap="round" stroke-linejoin="round"/>
<path d="M8.35599 5.153L8.97299 1.759C8.97299 1.759 11.545 2.89 17.913 3.032H18.256C24.625 2.89 27.059 1.746 27.059 1.746L27.672 5.156C26.495 5.698 24.947 6.1 23.522 6.306C20.911 6.683 18.436 6.639 18.436 6.639H18.096C18.096 6.639 11.687 6.688 8.35599 5.153Z" stroke="#494949" stroke-width="1.5" stroke-miterlimit="10" stroke-linecap="round" stroke-linejoin="round"/>
<path d="M18.087 3.547V6.195M20.189 4.73901C20.1895 4.77305 20.1833 4.80687 20.1707 4.8385C20.1581 4.87014 20.1393 4.89896 20.1155 4.92332C20.0917 4.94768 20.0634 4.96708 20.032 4.98041C20.0007 4.99375 19.967 5.00075 19.933 5.00101C19.8633 5.00101 19.7965 4.97347 19.747 4.92439C19.6975 4.87531 19.6695 4.80868 19.669 4.73901C19.669 4.59701 19.788 4.481 19.933 4.481C20.076 4.481 20.189 4.59701 20.189 4.73901Z" stroke="#494949" stroke-width="1.5" stroke-miterlimit="10" stroke-linecap="round" stroke-linejoin="round"/>
</svg>
