<svg width="110" height="109" viewBox="0 0 110 109" fill="none" xmlns="http://www.w3.org/2000/svg">
<g clip-path="url(#clip0_6_39)">
<path d="M88.3391 20.6906L89.7674 11.1718L98.2046 2.63647L98.5344 7.41618L98.2307 6.55781L97.851 2.9947L100.811 0L101.432 7.44533L88.3391 20.6906Z" fill="#414042"/>
<path d="M102.485 8.48621L89.3915 21.7307L98.8934 20.1927L102.245 16.8022L105.952 13.0519L106.977 12.0156L107.432 11.5553L109.937 9.02086L102.485 8.48621Z" fill="#414042"/>
<path d="M46.0243 80.3307C41.2661 80.3307 36.7925 78.4774 33.428 75.113C30.0636 71.7485 28.2103 67.2749 28.2103 62.5167C28.2103 57.7584 30.0636 53.2848 33.428 49.9204C36.7925 46.5559 41.2661 44.7026 46.0243 44.7026C49.5414 44.7026 52.9419 45.7267 55.8599 47.6628C56.7352 48.2435 56.9729 49.4233 56.3923 50.2985C55.8116 51.1738 54.6318 51.4123 53.7566 50.8309C51.4637 49.309 48.7897 48.5051 46.0236 48.5051C38.2975 48.5051 32.0128 54.7906 32.0128 62.5159C32.0128 70.242 38.2983 76.5267 46.0236 76.5267C53.7489 76.5267 60.0344 70.2412 60.0344 62.5159C60.0344 60.7562 59.713 59.0425 59.0801 57.4217C58.6981 56.4436 59.1806 55.3406 60.1594 54.9586C61.1375 54.5766 62.2405 55.0591 62.6225 56.0379C63.4287 58.1021 63.8376 60.2814 63.8376 62.5167C63.8376 67.2749 61.9843 71.7485 58.6199 75.113C55.2562 78.4774 50.7826 80.3307 46.0243 80.3307Z" fill="#414042"/>
<path d="M46.0243 95.3303C41.5951 95.3303 37.2979 94.4627 33.2508 92.7506C29.3433 91.0975 25.8338 88.7318 22.8215 85.7195C19.8092 82.7071 17.4427 79.1977 15.7904 75.2902C14.079 71.2438 13.2107 66.9458 13.2107 62.5167C13.2107 58.0875 14.0783 53.7903 15.7904 49.7432C17.4435 45.8356 19.8092 42.3262 22.8215 39.3131C25.8346 36.3 29.3433 33.9343 33.2508 32.2812C37.2972 30.5699 41.5951 29.7015 46.0243 29.7015C49.8628 29.7015 53.623 30.3589 57.1999 31.6545C60.6572 32.9072 63.8621 34.7236 66.7256 37.0556C67.5403 37.7183 67.663 38.9165 66.9995 39.7304C66.3367 40.5451 65.1393 40.6678 64.3246 40.0043C59.176 35.8129 52.6764 33.504 46.0235 33.504C30.0267 33.504 17.0124 46.5183 17.0124 62.5159C17.0124 78.5127 30.0267 91.5271 46.0235 91.5271C62.0203 91.5271 75.0354 78.5127 75.0354 62.5159C75.0354 56.8671 73.4123 51.3939 70.3409 46.6863C69.7671 45.8065 70.0149 44.629 70.894 44.0552C71.773 43.4815 72.9513 43.7292 73.5251 44.6083C77.0007 49.9349 78.8379 56.1276 78.8379 62.5159C78.8379 66.9451 77.9703 71.2423 76.2582 75.2894C74.6051 79.1969 72.2394 82.7063 69.2263 85.7187C66.2132 88.7318 62.7046 91.0975 58.7963 92.7498C54.7507 94.4627 50.4534 95.3303 46.0243 95.3303Z" fill="#414042"/>
<path d="M46.0243 108.541C39.8117 108.541 33.784 107.324 28.1091 104.923C22.6282 102.605 17.7066 99.2869 13.48 95.061C9.25411 90.8352 5.9357 85.9128 3.61757 80.432C1.21736 74.7571 0 68.7293 0 62.5167C0 56.3041 1.21736 50.2763 3.61757 44.6014C5.9357 39.1206 9.25411 34.199 13.48 29.9723C17.7059 25.7457 22.6282 22.428 28.1091 20.1091C33.7847 17.7089 39.8117 16.4916 46.0243 16.4916C51.6563 16.4916 57.1586 17.498 62.3778 19.4824C67.4199 21.3994 72.0523 24.1701 76.147 27.7171C76.9409 28.4044 77.0268 29.6057 76.3388 30.3988C75.6515 31.1928 74.4502 31.2787 73.657 30.5906C65.9923 23.9507 56.179 20.294 46.0243 20.294C22.7433 20.294 3.80244 39.2349 3.80244 62.5167C3.80244 85.7977 22.7433 104.739 46.0243 104.739C69.3061 104.739 88.247 85.7977 88.247 62.5167C88.247 53.3477 85.3582 44.6283 79.8934 37.3011C79.266 36.4596 79.4393 35.2683 80.2808 34.64C81.1223 34.0118 82.3136 34.1859 82.9418 35.0274C85.8414 38.9158 88.0959 43.2084 89.6408 47.7856C91.2386 52.5193 92.0494 57.4754 92.0494 62.5167C92.0494 68.7293 90.8321 74.7571 88.4319 80.432C86.1137 85.9128 82.7953 90.8344 78.5687 95.061C74.342 99.2869 69.4204 102.605 63.9396 104.923C58.2647 107.324 52.237 108.541 46.0243 108.541Z" fill="#414042"/>
<path d="M46.0765 75.6338C53.351 75.6338 59.2481 69.7366 59.2481 62.4621C59.2481 55.1876 53.351 49.2905 46.0765 49.2905C38.802 49.2905 32.9049 55.1876 32.9049 62.4621C32.9049 69.7366 38.802 75.6338 46.0765 75.6338Z" fill="#FFC300"/>
<path d="M46.8635 65.6655C46.4286 65.6655 45.9944 65.5014 45.6607 65.1715C44.9888 64.5072 44.9826 63.4233 45.6469 62.7514L101.519 6.23178C102.183 5.55982 103.267 5.55368 103.939 6.21798C104.611 6.88227 104.617 7.96616 103.953 8.63812L48.0809 65.157C47.7457 65.496 47.3046 65.6655 46.8635 65.6655Z" fill="#414042"/>
</g>
<defs>
<clipPath id="clip0_6_39">
<rect width="110" height="108.543" fill="white"/>
</clipPath>
</defs>
</svg>
