<svg width="110" height="122" viewBox="0 0 110 122" fill="none" xmlns="http://www.w3.org/2000/svg">
<path d="M71.1144 97.6628C70.2679 97.6628 69.4087 97.5414 68.5649 97.2879L54.2151 92.9794C53.222 92.6815 52.6588 91.634 52.9567 90.6409C53.2546 89.6477 54.302 89.0846 55.2951 89.3824L69.6449 93.691C71.7218 94.3148 74.0233 93.5316 74.9983 91.8703C75.4628 91.08 75.5624 90.18 75.279 89.3372C74.9531 88.3666 74.1527 87.55 73.0763 87.0883L44.1766 77.3992C44.1359 77.3856 44.0951 77.3702 44.0553 77.3539C42.5506 76.7311 40.7327 76.8986 39.4217 77.7804C39.3837 77.8057 39.3448 77.8302 39.3049 77.8528L22.1177 87.6713C21.2169 88.1856 20.0707 87.8723 19.5564 86.9724C19.0422 86.0716 19.3555 84.9254 20.2555 84.4111L37.3874 74.6252C39.7223 73.0843 42.7904 72.7919 45.4286 73.8593L74.3373 83.552C74.3781 83.5656 74.4189 83.5809 74.4588 83.5972C76.5664 84.47 78.1634 86.1268 78.8397 88.1439C79.4734 90.0325 79.2589 92.0315 78.2368 93.7734C76.7982 96.2232 74.0314 97.6628 71.1144 97.6628Z" fill="#414042"/>
<path d="M66.9878 115.963C66.1938 115.963 65.3953 115.85 64.6176 115.62L36.3761 107.303C34.8135 106.843 33.0398 107.27 31.9634 108.365C31.6139 108.721 31.1369 108.923 30.638 108.926L30.0259 108.931C30.0214 108.931 30.0169 108.931 30.0124 108.931C28.9812 108.931 28.1419 108.099 28.1346 107.067C28.1274 106.065 28.9051 105.242 29.8919 105.18C31.9353 103.51 34.8098 102.927 37.4371 103.701L65.6787 112.018C66.9081 112.38 68.2797 112.204 69.3481 111.545L104.547 89.8596C105.461 89.2965 106.048 88.4681 106.201 87.5275C106.339 86.6791 106.093 85.8281 105.511 85.131C104.243 83.6145 101.75 83.2696 99.9488 84.3587L81.9089 95.8467C81.0343 96.4035 79.8736 96.1464 79.3168 95.2718C78.76 94.3972 79.0171 93.2366 79.8917 92.6798L97.9489 81.181C97.9588 81.1746 97.9697 81.1683 97.9796 81.1619C99.612 80.167 101.572 79.7731 103.499 80.0529C105.451 80.3363 107.189 81.2851 108.392 82.7228C109.685 84.2691 110.224 86.1894 109.909 88.1304C109.584 90.1349 108.347 91.9302 106.517 93.0573L71.3181 114.743C70.0108 115.548 68.5079 115.963 66.9878 115.963Z" fill="#414042"/>
<path d="M16.8505 120.965C16.1687 120.965 15.5104 120.592 15.1782 119.944L0.267106 90.889C0.0335253 90.4336 -0.00449058 89.9021 0.162999 89.4187C0.330489 88.9352 0.68719 88.5405 1.15254 88.3259L16.1288 81.4272C17.0378 81.008 18.116 81.3764 18.5787 82.2637L33.4246 110.712C33.6573 111.158 33.7016 111.679 33.5468 112.157C33.3929 112.635 33.0526 113.033 32.6035 113.258L17.6923 120.764C17.4225 120.9 17.1338 120.965 16.8505 120.965ZM4.50233 90.9179L17.6689 116.573L29.2139 110.761L16.0763 85.5863L4.50233 90.9179Z" fill="#414042"/>
<path d="M20.4474 110.953C21.7334 110.953 22.776 109.945 22.776 108.7C22.776 107.455 21.7334 106.447 20.4474 106.447C19.1613 106.447 18.1188 107.455 18.1188 108.7C18.1188 109.945 19.1613 110.953 20.4474 110.953Z" fill="#414042"/>
<path d="M52.5275 12.9791C52.0685 12.9791 51.6095 12.8043 51.2591 12.454L41.9231 3.1171C41.2224 2.41636 41.2224 1.28105 41.9231 0.58122C42.6239 -0.119521 43.7592 -0.119521 44.4599 0.58122L53.7968 9.91807C54.4975 10.6188 54.4975 11.7541 53.7968 12.454C53.4455 12.8043 52.9865 12.9791 52.5275 12.9791Z" fill="#414042"/>
<path d="M88.1321 12.9791C87.6731 12.9791 87.2142 12.8043 86.8638 12.454C86.1631 11.7532 86.1631 10.6179 86.8638 9.91807L96.2007 0.58122C96.9014 -0.119521 98.0367 -0.119521 98.7366 0.58122C99.4373 1.28196 99.4373 2.41727 98.7366 3.1171L89.3996 12.454C89.0501 12.8043 88.5911 12.9791 88.1321 12.9791Z" fill="#414042"/>
<path d="M107.04 52.5066C106.687 52.5066 106.331 52.4025 106.019 52.1861L95.3044 44.7469C94.4905 44.1819 94.2895 43.0647 94.8544 42.2508C95.4193 41.4369 96.5365 41.2359 97.3505 41.8009L108.065 49.2401C108.879 49.8051 109.08 50.9223 108.515 51.7362C108.167 52.2378 107.608 52.5066 107.04 52.5066Z" fill="#414042"/>
<path d="M34.0303 52.5066C33.4626 52.5066 32.904 52.2377 32.5555 51.7362C31.9905 50.9223 32.1924 49.8051 33.0054 49.2401L43.7202 41.8009C44.5341 41.2359 45.6513 41.4378 46.2163 42.2508C46.7812 43.0647 46.5793 44.1819 45.7663 44.7469L35.0515 52.1861C34.7392 52.4025 34.3824 52.5066 34.0303 52.5066Z" fill="#414042"/>
<path d="M70.5639 74.1146C69.5734 74.1146 68.7704 73.3116 68.7704 72.3212V60.1596C68.7704 59.1691 69.5734 58.3661 70.5639 58.3661C71.5543 58.3661 72.3574 59.1691 72.3574 60.1596V72.3212C72.3574 73.3116 71.5543 74.1146 70.5639 74.1146Z" fill="#414042"/>
<path d="M71.4448 4.84367L78.9564 20.0644C79.2072 20.5723 79.6925 20.9254 80.2529 21.0069L97.0499 23.4477C98.4622 23.6532 99.0262 25.3888 98.0041 26.3856L85.8498 38.233C85.4442 38.6286 85.2586 39.199 85.3546 39.7576L88.2236 56.4866C88.4653 57.8935 86.9878 58.9664 85.7248 58.3019L70.7006 50.4036C70.199 50.1401 69.5997 50.1401 69.0981 50.4036L54.0738 58.3019C52.8099 58.9664 51.3333 57.8935 51.575 56.4866L54.4441 39.7576C54.5401 39.199 54.3545 38.6286 53.9489 38.233L41.7946 26.3856C40.7724 25.3888 41.3364 23.6532 42.7488 23.4477L59.5457 21.0069C60.1071 20.9254 60.5914 20.5732 60.8422 20.0644L68.3539 4.84367C68.9876 3.5635 70.8128 3.5635 71.4448 4.84367Z" fill="#FFC300"/>
<path d="M53.2708 60.2963C52.5447 60.2963 51.824 60.0691 51.2075 59.6209C50.1165 58.8287 49.5806 57.5115 49.8087 56.1824L52.6714 39.4896L40.5434 27.6675C39.5783 26.7269 39.237 25.3453 39.6535 24.0633C40.07 22.7813 41.1572 21.8642 42.4917 21.6705L59.2515 19.2351L66.7469 4.04785C67.3435 2.83921 68.5513 2.08777 69.8993 2.08777C71.2474 2.08777 72.4551 2.8383 73.0518 4.04785L80.5472 19.2351L97.307 21.6705C98.6406 21.8642 99.7288 22.7813 100.145 24.0633C100.562 25.3453 100.221 26.7259 99.2553 27.6675L87.1272 39.4896L89.99 56.1824C90.2181 57.5115 89.6821 58.8287 88.5912 59.6209C87.5012 60.4131 86.0816 60.5154 84.8892 59.8889L69.8984 52.0078L54.9095 59.8889C54.3907 60.1623 53.8294 60.2963 53.2708 60.2963ZM69.9002 48.4118C70.4625 48.4118 71.0238 48.5467 71.5362 48.8156L86.4319 56.6469L83.5873 40.0599C83.3918 38.9192 83.7693 37.7558 84.5986 36.9483L96.6497 25.2013L79.9958 22.7813C78.8505 22.6148 77.861 21.8959 77.3486 20.8584L69.9002 5.76711L62.4519 20.8584C61.9395 21.8959 60.95 22.6148 59.8047 22.7813L43.1508 25.2013L55.2019 36.9483C56.0303 37.7558 56.4087 38.9192 56.2132 40.0599L53.3686 56.6469L68.2643 48.8156C68.7767 48.5467 69.3389 48.4118 69.9002 48.4118Z" fill="#414042"/>
</svg>
