<svg width="110" height="120" viewBox="0 0 110 120" fill="none" xmlns="http://www.w3.org/2000/svg">
<g clip-path="url(#clip0_6_12)">
<path d="M70.0752 101.719H39.8937C38.8806 101.719 38.0601 100.898 38.0601 99.8855C38.0601 98.8733 38.8806 98.0518 39.8937 98.0518H70.0752C71.0883 98.0518 71.9089 98.8733 71.9089 99.8855C71.9089 100.898 71.0883 101.719 70.0752 101.719Z" fill="#414042"/>
<path d="M67.3268 107.883H42.6422C41.6291 107.883 40.8086 107.062 40.8086 106.05C40.8086 105.037 41.6291 104.216 42.6422 104.216H67.3268C68.3399 104.216 69.1604 105.037 69.1604 106.05C69.1604 107.062 68.3399 107.883 67.3268 107.883Z" fill="#414042"/>
<path d="M83.3216 53.7159C83.3216 58.4061 82.1697 63.1752 79.855 67.267C76.3606 73.4371 73.3939 83.6909 72.0618 90.6778C71.8612 91.7277 71.6328 92.9137 71.2682 94.037H38.6856C38.2207 92.6046 37.978 91.0541 37.7397 89.7624C36.835 84.8518 34.8437 76.5086 32.6159 72.063C31.2373 69.313 29.6016 66.6866 28.5008 63.8031C27.2718 60.5882 26.6465 57.1565 26.6465 53.7168C26.6465 38.066 39.3332 25.3793 54.9841 25.3793C70.6349 25.3802 83.3216 38.0669 83.3216 53.7159Z" fill="#FFC300"/>
<path d="M71.2691 95.8707H38.6864C37.8919 95.8707 37.1878 95.3592 36.9423 94.6032C36.507 93.2622 36.2598 91.8854 36.0412 90.6716C36.0063 90.4746 35.9713 90.2829 35.9364 90.0957C35.1445 85.7987 33.2079 77.339 30.9765 72.8853C30.5412 72.0164 30.0646 71.1332 29.6042 70.2795C28.6063 68.4288 27.5735 66.5155 26.7879 64.4579C25.4774 61.0289 24.8127 57.4154 24.8127 53.7176C24.8127 37.0814 38.3469 23.5464 54.984 23.5464C71.6211 23.5464 85.1553 37.0805 85.1553 53.7158C85.1553 58.888 83.8743 63.8855 81.4513 68.17C78.1047 74.0793 75.1719 84.1576 73.8632 91.0219C73.6644 92.0619 73.418 93.3563 73.0123 94.6041C72.7677 95.3583 72.0636 95.8707 71.2691 95.8707ZM40.0829 92.2034H69.8744C70.0258 91.5647 70.1476 90.926 70.2604 90.3339C71.6695 82.9447 74.6891 72.6676 78.2597 66.3632C80.3414 62.6834 81.488 58.1911 81.488 53.7158C81.488 39.1023 69.5985 27.2137 54.984 27.2137C40.3696 27.2137 28.48 39.1032 28.48 53.7176C28.48 56.9666 29.0632 60.1394 30.2142 63.1492C30.9147 64.9846 31.8463 66.7107 32.8317 68.5381C33.3055 69.416 33.7955 70.3243 34.255 71.2424C36.6709 76.0635 38.716 84.9432 39.5428 89.4301C39.5777 89.6218 39.6135 89.8198 39.6503 90.0222C39.7757 90.7155 39.9109 91.4662 40.0829 92.2034Z" fill="#414042"/>
<path d="M75.3764 53.738C74.3919 53.738 73.5777 52.956 73.5445 51.9644C73.1871 41.1113 61.3757 36.069 61.2565 36.0189C60.3232 35.6301 59.8789 34.5579 60.2658 33.6236C60.6528 32.6893 61.7223 32.2441 62.6575 32.6302C62.8017 32.6893 66.2289 34.1207 69.7188 37.1511C74.4376 41.2474 77.0281 46.3273 77.21 51.8443C77.2431 52.8565 76.4495 53.7039 75.4382 53.7371C75.4167 53.738 75.3961 53.738 75.3764 53.738Z" fill="#414042"/>
<path d="M67.1206 110.961C67.1206 115.624 61.6878 119.405 54.9856 119.405C48.2834 119.405 42.8496 115.624 42.8496 110.961C42.8496 110.951 42.8496 110.941 42.8505 110.932H67.1188C67.1206 110.94 67.1206 110.951 67.1206 110.961Z" fill="#414042"/>
<path d="M54.9847 18.9552C54.0755 18.9552 53.3392 18.218 53.3392 17.3097V1.71003C53.3392 0.800831 54.0755 0.0645142 54.9847 0.0645142C55.8939 0.0645142 56.6302 0.801726 56.6302 1.71003V17.3097C56.6302 18.218 55.893 18.9552 54.9847 18.9552Z" fill="#414042"/>
<path d="M108.283 53.248H92.6829C91.7737 53.248 91.0374 52.5108 91.0374 51.6025C91.0374 50.6933 91.7746 49.957 92.6829 49.957H108.283C109.192 49.957 109.928 50.6942 109.928 51.6025C109.928 52.5117 109.191 53.248 108.283 53.248Z" fill="#414042"/>
<path d="M17.2845 53.248H1.68489C0.775693 53.248 0.0393677 52.5108 0.0393677 51.6025C0.0393677 50.6933 0.775693 49.957 1.68489 49.957H17.2845C18.1937 49.957 18.9301 50.6942 18.9301 51.6025C18.931 52.5117 18.1937 53.248 17.2845 53.248Z" fill="#414042"/>
<path d="M24.6228 30.9489C24.2689 30.9489 23.9124 30.8351 23.6115 30.6005L11.3126 21.0058C10.596 20.4468 10.4679 19.4122 11.0268 18.6956C11.5858 17.979 12.6195 17.8518 13.337 18.4107L25.6368 28.0063C26.3534 28.5652 26.4815 29.5999 25.9225 30.3165C25.5974 30.7312 25.1128 30.9489 24.6228 30.9489Z" fill="#414042"/>
<path d="M83.8635 30.9487C83.3735 30.9487 82.8898 30.731 82.5646 30.3154C82.0057 29.5988 82.1329 28.5651 82.8495 28.0052L95.1492 18.4097C95.8658 17.8508 96.8995 17.9788 97.4585 18.6946C98.0174 19.4112 97.8902 20.4449 97.1727 21.0048L84.873 30.6002C84.5738 30.8349 84.2173 30.9487 83.8635 30.9487Z" fill="#414042"/>
<path d="M98.4676 84.7006C98.1137 84.7006 97.7572 84.5869 97.4562 84.3522L85.1563 74.7568C84.4397 74.1978 84.3116 73.1641 84.8706 72.4466C85.4295 71.73 86.4641 71.6028 87.1799 72.1618L99.4798 81.7572C100.196 82.3161 100.324 83.3498 99.7646 84.0673C99.4413 84.483 98.9567 84.7006 98.4676 84.7006Z" fill="#414042"/>
<path d="M10.8431 84.7006C10.3531 84.7006 9.86939 84.483 9.54423 84.0673C8.98527 83.3507 9.11336 82.317 9.82998 81.7572L22.1297 72.1618C22.8464 71.6028 23.8801 71.73 24.4399 72.4466C24.9989 73.1632 24.8708 74.1969 24.1542 74.7568L11.8544 84.3522C11.5543 84.5869 11.1969 84.7006 10.8431 84.7006Z" fill="#414042"/>
<path opacity="0.6" d="M81.2808 53.6329C81.2808 58.1181 80.179 62.6793 77.9655 66.5948C74.6225 72.497 71.7847 82.3066 70.5092 88.9891C70.3184 89.9924 70.0989 91.1273 69.7513 92.2022H66.5875C66.9368 91.1273 67.1536 89.9924 67.3471 88.9891C68.6209 82.3066 71.4587 72.497 74.8017 66.5948C77.0151 62.6802 78.1169 58.1181 78.1169 53.6329C78.1169 39.1948 66.5516 28.2404 52.317 27.4208C52.8392 27.3912 53.6033 27.2775 54.1345 27.2775C69.1055 27.2775 81.2808 38.6636 81.2808 53.6329Z" fill="#FFC300"/>
</g>
<defs>
<clipPath id="clip0_6_12">
<rect width="110" height="119.406" fill="white"/>
</clipPath>
</defs>
</svg>
