<svg width="24" height="24" viewBox="0 0 24 24" fill="none" xmlns="http://www.w3.org/2000/svg">
<path d="M12 0C5.4 0 0 5.4 0 12C0 18.6 5.4 24 12 24C18.6 24 24 18.6 24 12C24 5.4 18.6 0 12 0ZM15.6 13.2H11.28L12.84 14.76C13.32 15.24 13.32 15.96 12.84 16.44C12.36 16.92 11.64 16.92 11.16 16.44L7.56 12.84C7.08 12.36 7.08 11.64 7.56 11.16L11.16 7.56C11.64 7.08 12.36 7.08 12.84 7.56C13.32 8.04 13.32 8.76 12.84 9.24L11.28 10.8H15.6C16.32 10.8 16.8 11.28 16.8 12C16.8 12.72 16.32 13.2 15.6 13.2Z" fill="black"/>
</svg>
