<svg width="25" height="25" viewBox="0 0 25 25" fill="none" xmlns="http://www.w3.org/2000/svg">
<path d="M12.3333 0.333332C5.73333 0.333332 0.333332 5.73333 0.333332 12.3333C0.333332 18.9333 5.73333 24.3333 12.3333 24.3333C18.9333 24.3333 24.3333 18.9333 24.3333 12.3333C24.3333 5.73333 18.9333 0.333332 12.3333 0.333332ZM16.7733 13.1733L13.1733 16.7733C12.6933 17.2533 11.9733 17.2533 11.4933 16.7733C11.0133 16.2933 11.0133 15.5733 11.4933 15.0933L13.0533 13.5333H8.73333C8.01333 13.5333 7.53333 13.0533 7.53333 12.3333C7.53333 11.6133 8.01333 11.1333 8.73333 11.1333H13.0533L11.4933 9.57333C11.0133 9.09333 11.0133 8.37333 11.4933 7.89333C11.9733 7.41333 12.6933 7.41333 13.1733 7.89333L16.7733 11.4933C17.2533 11.9733 17.2533 12.6933 16.7733 13.1733Z" fill="black"/>
</svg>
