<svg width="16" height="16" viewBox="0 0 16 16" fill="none" xmlns="http://www.w3.org/2000/svg">
<path d="M14.6876 6.7657H9.90471V1.98284C9.90471 1.39594 9.42875 0.919983 8.84185 0.919983H7.77899C7.1921 0.919983 6.71614 1.39594 6.71614 1.98284V6.7657H1.93328C1.34638 6.7657 0.870422 7.24166 0.870422 7.82855V8.89141C0.870422 9.47831 1.34638 9.95427 1.93328 9.95427H6.71614V14.7371C6.71614 15.324 7.1921 15.8 7.77899 15.8H8.84185C9.42875 15.8 9.90471 15.324 9.90471 14.7371V9.95427H14.6876C15.2745 9.95427 15.7504 9.47831 15.7504 8.89141V7.82855C15.7504 7.24166 15.2745 6.7657 14.6876 6.7657Z" fill="white"/>
</svg>
