<svg width="22" height="16" viewBox="0 0 22 16" fill="none" xmlns="http://www.w3.org/2000/svg">
<path d="M20.2644 0.3672C20.1201 0.13832 19.8707 0 19.6037 0H14.1429C12.843 0 11.7857 1.07656 11.7857 2.4V8C11.7857 9.32344 12.843 10.4 14.1429 10.4H15.7028C14.9731 12.5516 14.35 13.582 12.2768 14.4617C11.9308 14.6086 11.735 14.9835 11.8087 15.3578C11.8824 15.7313 12.2047 16 12.5791 16H12.5807C16.906 15.9922 19.3905 14.2266 21.1522 9.91096C21.7145 8.55544 22 7.10472 22 5.6C22 3.28592 21.3125 2.02576 20.2644 0.3672ZM7.81801 0H2.35714C1.05734 0 0 1.07656 0 2.4V8C0 9.32344 1.05734 10.4 2.35714 10.4H3.9171C3.18741 12.5516 2.56434 13.582 0.491071 14.4617C0.145043 14.6086 -0.0506786 14.9835 0.0230214 15.3578C0.0966428 15.7313 0.418943 16 0.793414 16H0.794986C5.12026 15.9922 7.60477 14.2266 9.3665 9.91096C9.92884 8.55544 10.2143 7.10472 10.2143 5.6C10.2143 3.28592 9.52679 2.02576 8.47864 0.3672C8.33439 0.13832 8.085 0 7.81801 0Z" fill="black"/>
</svg>
