<svg width="14" height="13" viewBox="0 0 14 13" fill="none" xmlns="http://www.w3.org/2000/svg">
<path d="M13.94 6.31C13.9505 6.227 13.9505 6.14301 13.94 6.06V6C13.9395 5.89383 13.9192 5.78868 13.88 5.69C13.8385 5.57774 13.7737 5.47551 13.69 5.39L8.69 0.390001C8.5017 0.201698 8.2463 0.0959091 7.98 0.0959091C7.7137 0.0959091 7.4583 0.201698 7.27 0.390001C7.0817 0.578305 6.97591 0.8337 6.97591 1.1C6.97591 1.3663 7.0817 1.6217 7.27 1.81L10.59 5H1C0.734784 5 0.48043 5.10536 0.292893 5.29289C0.105357 5.48043 0 5.73478 0 6C0 6.26522 0.105357 6.51957 0.292893 6.70711C0.48043 6.89464 0.734784 7 1 7H10.59L7.29 10.29C7.19627 10.383 7.12188 10.4936 7.07111 10.6154C7.02034 10.7373 6.9942 10.868 6.9942 11C6.9942 11.132 7.02034 11.2627 7.07111 11.3846C7.12188 11.5064 7.19627 11.617 7.29 11.71C7.38296 11.8037 7.49356 11.8781 7.61542 11.9289C7.73728 11.9797 7.86799 12.0058 8 12.0058C8.13201 12.0058 8.26272 11.9797 8.38458 11.9289C8.50644 11.8781 8.61704 11.8037 8.71 11.71L13.71 6.71C13.7907 6.62214 13.8551 6.52054 13.9 6.41C13.9193 6.37935 13.9328 6.34547 13.94 6.31Z" fill="#FFC300"/>
</svg>
