<svg width="45" height="51" viewBox="0 0 45 51" fill="none" xmlns="http://www.w3.org/2000/svg">
<path d="M40.8214 4.71429H37.4797L32.995 0.230183C32.968 0.209473 32.9397 0.19066 32.9101 0.173879C32.8827 0.152616 32.8538 0.133367 32.8237 0.116286C32.708 0.0446161 32.5755 0.00452257 32.4394 0L13.0606 0C12.9245 0.0045253 12.7921 0.0446188 12.6763 0.116286C12.6462 0.13335 12.6172 0.152582 12.5898 0.173831C12.5603 0.190613 12.5319 0.209426 12.505 0.230136L8.02026 4.71429H4.67857C3.63699 4.71538 2.63837 5.12963 1.90186 5.86615C1.16535 6.60266 0.751094 7.60127 0.75 8.64286V46.3571C0.751094 47.3987 1.16535 48.3973 1.90186 49.1339C2.63837 49.8704 3.63699 50.2846 4.67857 50.2857H40.8214C41.863 50.2846 42.8616 49.8704 43.5981 49.1339C44.3347 48.3973 44.7489 47.3987 44.75 46.3571V8.64286C44.7489 7.60127 44.3347 6.60266 43.5981 5.86615C42.8616 5.12963 41.863 4.71538 40.8214 4.71429ZM30.5427 1.57143L22.75 9.36488L14.9573 1.57143H30.5427ZM19.6071 48.7143H4.67857C4.05363 48.7136 3.45448 48.465 3.01257 48.0231C2.57067 47.5812 2.32211 46.9821 2.32143 46.3571V8.64286C2.32211 8.01791 2.57067 7.41876 3.01257 6.97686C3.45448 6.53496 4.05363 6.2864 4.67857 6.28571H7.75774L16.2387 14.7659C16.6811 15.2071 17.2805 15.4549 17.9053 15.4549C18.5301 15.4549 19.1295 15.2071 19.5719 14.7659L19.6071 14.7306V48.7143ZM19.8148 12.3005L18.4608 13.6549C18.3133 13.8019 18.1136 13.8845 17.9053 13.8845C17.697 13.8845 17.4973 13.8019 17.3498 13.6549L9.32529 5.63121L13.0606 1.89671L17.3498 6.18631L21.639 10.4759L19.8702 12.2451C19.8508 12.2626 19.8323 12.2811 19.8148 12.3005ZM24.3214 48.7143H21.1786V13.1588L22.75 11.5871L24.3214 13.1588V48.7143ZM25.6298 12.2451L23.861 10.4759L28.1502 6.18634L32.4394 1.89671L36.1747 5.63121L28.1503 13.6549C28.0774 13.7279 27.9908 13.7858 27.8954 13.8253C27.8001 13.8648 27.698 13.8851 27.5948 13.8851C27.4916 13.8851 27.3895 13.8648 27.2941 13.8253C27.1988 13.7858 27.1122 13.7279 27.0393 13.6549L25.6853 12.3005C25.6678 12.2811 25.6492 12.2626 25.6298 12.2451ZM43.1786 46.3571C43.1779 46.9821 42.9293 47.5812 42.4874 48.0231C42.0455 48.465 41.4464 48.7136 40.8214 48.7143H25.8929V14.7306L25.9282 14.7659C26.3706 15.2071 26.9699 15.4549 27.5947 15.4549C28.2196 15.4549 28.8189 15.2071 29.2613 14.7659L37.7423 6.28571H40.8214C41.4464 6.2864 42.0455 6.53496 42.4874 6.97686C42.9293 7.41876 43.1779 8.01791 43.1786 8.64286V46.3571ZM37.6786 20.4286H31.3929C30.7679 20.4293 30.1688 20.6778 29.7269 21.1197C29.285 21.5616 29.0364 22.1608 29.0357 22.7857V29.0714C29.0357 30.5301 29.6152 31.9291 30.6466 32.9605C31.6781 33.992 33.077 34.5714 34.5357 34.5714C35.9944 34.5714 37.3934 33.992 38.4248 32.9605C39.4563 31.9291 40.0357 30.5301 40.0357 29.0714V22.7857C40.035 22.1608 39.7865 21.5616 39.3446 21.1197C38.9027 20.6778 38.3035 20.4293 37.6786 20.4286ZM38.4643 29.0714C38.4643 30.1133 38.0504 31.1126 37.3136 31.8493C36.5769 32.5861 35.5776 33 34.5357 33C33.4938 33 32.4945 32.5861 31.7578 31.8493C31.021 31.1126 30.6071 30.1133 30.6071 29.0714V25.1429H38.4643V29.0714ZM38.4643 23.5714H30.6071V22.7857C30.6074 22.5774 30.6903 22.3777 30.8376 22.2304C30.9849 22.0831 31.1846 22.0003 31.3929 22H37.6786C37.8869 22.0003 38.0866 22.0831 38.2339 22.2304C38.3811 22.3777 38.464 22.5774 38.4643 22.7857V23.5714ZM22.75 43.2143C22.5946 43.2143 22.4427 43.2604 22.3135 43.3467C22.1843 43.433 22.0836 43.5557 22.0241 43.6993C21.9646 43.8429 21.9491 44.0009 21.9794 44.1533C22.0097 44.3057 22.0845 44.4457 22.1944 44.5556C22.3043 44.6655 22.4443 44.7403 22.5967 44.7706C22.7491 44.8009 22.9071 44.7854 23.0507 44.7259C23.1942 44.6664 23.317 44.5657 23.4033 44.4365C23.4896 44.3073 23.5357 44.1554 23.5357 44C23.5357 43.7916 23.4529 43.5918 23.3056 43.4444C23.1582 43.2971 22.9584 43.2143 22.75 43.2143ZM21.9643 18.8571C21.9643 19.0125 22.0104 19.1645 22.0967 19.2937C22.183 19.4229 22.3057 19.5236 22.4493 19.583C22.5929 19.6425 22.7509 19.6581 22.9033 19.6278C23.0557 19.5974 23.1957 19.5226 23.3056 19.4127C23.4155 19.3028 23.4903 19.1628 23.5206 19.0104C23.5509 18.858 23.5354 18.7 23.4759 18.5565C23.4164 18.4129 23.3157 18.2902 23.1865 18.2038C23.0573 18.1175 22.9054 18.0714 22.75 18.0714C22.5416 18.0714 22.3418 18.1542 22.1944 18.3016C22.0471 18.4489 21.9643 18.6488 21.9643 18.8571ZM22.75 24.3571C22.5946 24.3571 22.4427 24.4032 22.3135 24.4896C22.1843 24.5759 22.0836 24.6986 22.0241 24.8422C21.9646 24.9857 21.9491 25.1437 21.9794 25.2961C22.0097 25.4486 22.0845 25.5886 22.1944 25.6984C22.3043 25.8083 22.4443 25.8832 22.5967 25.9135C22.7491 25.9438 22.9071 25.9282 23.0507 25.8688C23.1942 25.8093 23.317 25.7086 23.4033 25.5794C23.4896 25.4502 23.5357 25.2983 23.5357 25.1429C23.5357 24.9345 23.4529 24.7346 23.3056 24.5873C23.1582 24.4399 22.9584 24.3571 22.75 24.3571ZM22.75 36.9286C22.5946 36.9286 22.4427 36.9747 22.3135 37.061C22.1843 37.1473 22.0836 37.27 22.0241 37.4136C21.9646 37.5572 21.9491 37.7152 21.9794 37.8676C22.0097 38.02 22.0845 38.16 22.1944 38.2699C22.3043 38.3798 22.4443 38.4546 22.5967 38.4849C22.7491 38.5152 22.9071 38.4997 23.0507 38.4402C23.1942 38.3807 23.317 38.28 23.4033 38.1508C23.4896 38.0216 23.5357 37.8697 23.5357 37.7143C23.5357 37.5059 23.4529 37.3061 23.3056 37.1587C23.1582 37.0114 22.9584 36.9286 22.75 36.9286ZM22.75 30.6429C22.5946 30.6429 22.4427 30.6889 22.3135 30.7753C22.1843 30.8616 22.0836 30.9843 22.0241 31.1279C21.9646 31.2715 21.9491 31.4294 21.9794 31.5819C22.0097 31.7343 22.0845 31.8743 22.1944 31.9842C22.3043 32.094 22.4443 32.1689 22.5967 32.1992C22.7491 32.2295 22.9071 32.2139 23.0507 32.1545C23.1942 32.095 23.317 31.9943 23.4033 31.8651C23.4896 31.7359 23.5357 31.584 23.5357 31.4286C23.5357 31.2202 23.4529 31.0203 23.3056 30.873C23.1582 30.7256 22.9584 30.6429 22.75 30.6429Z" fill="black"/>
</svg>
