<svg width="44" height="44" viewBox="0 0 44 44" fill="none" xmlns="http://www.w3.org/2000/svg">
<path d="M42.2696 34.3369C42.2824 33.5082 42.1211 32.0439 41.0528 30.5959C39.5048 28.4971 36.6631 27.2134 32.6063 26.7802C17.1364 25.1371 17.2845 13.0073 17.1863 12.7987V8.21211C17.1863 6.34451 15.6463 4.82547 13.7532 4.82547C13.1971 4.82547 12.6631 4.95721 12.1778 5.21151C11.8114 5.39385 11.5744 5.78338 11.5744 6.20358V12.4265H3.17149C1.77941 12.4265 0.647057 13.5588 0.647057 14.9509C0.647057 20.7592 0.647057 32.0747 0.647057 37.8804C0.647057 38.5942 1.22779 39.1745 1.94117 39.1745H41.7675C42.6414 39.1745 43.3529 38.463 43.3529 37.5888V35.8334C43.3529 35.1357 42.8968 34.5484 42.2696 34.3369ZM12.8685 6.31358C13.1484 6.18468 13.4461 6.11959 13.7532 6.11959C14.7819 6.11959 15.8922 6.91955 15.8922 8.21211V12.4265H12.8685V6.31358ZM1.94117 14.9509C1.94117 14.2726 2.49286 13.7206 3.17149 13.7206C4.14868 13.7206 12.7013 13.7206 15.9914 13.7206C16.1398 15.6365 16.6174 17.2926 17.3036 18.7369L13.3348 21.1312C13.029 21.316 12.9304 21.7134 13.115 22.0196C13.2993 22.3238 13.6945 22.4246 14.0034 22.2395L17.9159 19.8792C18.7313 21.2346 19.7366 22.3753 20.8327 23.3231L17.0536 26.3246C16.7737 26.5471 16.7269 26.954 16.9493 27.234C17.1723 27.5149 17.5805 27.5594 17.8586 27.3382L21.8753 24.148C24.958 26.4107 28.6056 27.6565 32.4692 28.0671C36.1336 28.4586 38.665 29.5599 39.9944 31.341C40.8387 32.4727 40.9808 33.6072 40.9795 34.2477H1.94117V14.9509ZM42.0588 37.5888C42.0588 37.7496 41.9281 37.8804 41.7675 37.8804H1.94117V35.5418C6.8902 35.5418 36.7627 35.5418 41.7675 35.5418C41.9281 35.5418 42.0588 35.6726 42.0588 35.8334V37.5888Z" fill="black"/>
<path d="M4.85106 16.7376C4.49343 16.7376 4.204 17.0273 4.204 17.3846V20.2004C4.204 20.5577 4.49343 20.8474 4.85106 20.8474C5.20869 20.8474 5.49812 20.5577 5.49812 20.2004V17.3846C5.49812 17.0273 5.20869 16.7376 4.85106 16.7376ZM4.85106 22.8382C4.49343 22.8382 4.204 23.1279 4.204 23.4853V27.2393C4.204 27.5967 4.49343 27.8864 4.85106 27.8864C5.20869 27.8864 5.49812 27.5967 5.49812 27.2393V23.4853C5.49812 23.1279 5.20869 22.8382 4.85106 22.8382Z" fill="black"/>
</svg>
