<svg width="15" height="15" viewBox="0 0 15 15" fill="none" xmlns="http://www.w3.org/2000/svg">
<path d="M12.0472 14.9558C11.5141 15.3356 8.09316 12.9284 7.43798 12.9231C6.7828 12.9178 3.32339 15.2697 2.79647 14.8814C2.26954 14.4931 3.50832 10.505 3.3109 9.88208C3.11349 9.25914 -0.198682 6.70512 0.0087951 6.08541C0.216317 5.46571 4.40281 5.40815 4.93596 5.0284C5.4691 4.6487 6.88151 0.718395 7.53673 0.72364C8.19187 0.728931 9.54046 4.68145 10.0674 5.06973C10.5943 5.45796 14.7794 5.58293 14.9768 6.20587C15.1743 6.82881 11.8212 9.3292 11.6137 9.9489C11.4062 10.5686 12.5803 14.5761 12.0472 14.9558Z" fill="#F8B84E"/>
</svg>
