<svg width="50" height="50" viewBox="0 0 50 50" fill="none" xmlns="http://www.w3.org/2000/svg">
<path d="M24.2867 38.9313C16.6789 38.9313 10.4898 32.7422 10.4898 25.1359C10.4898 17.5281 16.6789 11.3375 24.2867 11.3375C31.8945 11.3375 38.0844 17.5281 38.0844 25.1359C38.0844 32.7422 31.8945 38.9313 24.2867 38.9313ZM24.2867 12.4453C17.2898 12.4453 11.5969 18.1383 11.5969 25.1359C11.5969 32.132 17.2898 37.8234 24.2867 37.8234C31.2844 37.8234 36.9773 32.132 36.9773 25.1359C36.9773 18.1383 31.2836 12.4453 24.2867 12.4453Z" fill="black"/>
<path d="M18.7688 45.0148C18.5461 45.0148 18.3453 44.8813 18.2586 44.6758L15.4055 37.9195C15.2867 37.6383 15.4188 37.3133 15.7 37.1945C15.9828 37.075 16.3063 37.2078 16.4258 37.4891L19.1359 43.9063L30.2555 43.8828L32.1555 37.6258C32.2438 37.3336 32.5523 37.1641 32.8461 37.257C33.1391 37.3453 33.3039 37.6547 33.2148 37.9477L31.1961 44.5961C31.125 44.8289 30.9109 44.9883 30.6672 44.9891L18.7703 45.0148H18.7688ZM32.6852 12.8219C32.4703 12.8219 32.2656 12.6961 32.1758 12.4859L29.4391 6.09375L18.3195 6.11719L16.4461 12.3469C16.3578 12.6398 16.0461 12.8047 15.7563 12.718C15.4633 12.6297 15.2977 12.3211 15.3852 12.0281L17.3773 5.40547C17.4477 5.17188 17.6625 5.01172 17.9063 5.01094L29.8031 4.98516H29.8047C30.0266 4.98516 30.2266 5.11719 30.3133 5.32109L33.1938 12.05C33.3141 12.3313 33.1836 12.6562 32.9023 12.7773C32.8313 12.8078 32.7578 12.8219 32.6852 12.8219Z" fill="black"/>
<path d="M38.4727 26.2531H38.3109C37.7375 26.2531 37.2711 25.7875 37.2711 25.2156V25.0539C37.2711 24.4812 37.7375 24.0164 38.3109 24.0164H38.4727C39.0445 24.0164 39.5102 24.482 39.5102 25.0539V25.2156C39.5102 25.7875 39.0445 26.2531 38.4727 26.2531Z" fill="black"/>
<path d="M24.3434 37.7507C24.0631 37.7507 23.8372 37.5241 23.8372 37.2438V35.5695C23.8372 35.2893 24.0639 35.0626 24.3434 35.0626C24.6229 35.0626 24.8496 35.2893 24.8496 35.5695V37.2438C24.8496 37.5241 24.6229 37.7507 24.3434 37.7507ZM24.3434 15.2145C24.0631 15.2145 23.8372 14.9879 23.8372 14.7077V13.0069C23.8372 12.7266 24.0639 12.5 24.3434 12.5C24.6229 12.5 24.8496 12.7266 24.8496 13.0069V14.7077C24.8496 14.9872 24.6229 15.2145 24.3434 15.2145ZM36.4626 25.6337H34.7618C34.4816 25.6337 34.2557 25.407 34.2557 25.1268C34.2557 24.8465 34.4823 24.6199 34.7618 24.6199H36.4626C36.7428 24.6199 36.9687 24.8465 36.9687 25.1268C36.9695 25.4063 36.7428 25.6337 36.4626 25.6337ZM13.9243 25.6337H12.2249C11.9447 25.6337 11.7188 25.407 11.7188 25.1268C11.7188 24.8465 11.9454 24.6199 12.2249 24.6199H13.9243C14.2045 24.6199 14.4311 24.8465 14.4311 25.1268C14.4304 25.4063 14.2038 25.6337 13.9243 25.6337ZM18.3074 36.1507C18.2223 36.1507 18.1372 36.1293 18.0579 36.0843C17.8141 35.947 17.729 35.6374 17.8663 35.3936L18.7042 33.9152C18.8421 33.6714 19.1517 33.5871 19.3948 33.7243C19.6386 33.8616 19.7236 34.1711 19.5864 34.4149L18.7485 35.8934C18.6555 36.0578 18.484 36.1507 18.3074 36.1507ZM29.5394 16.5922C29.4536 16.5922 29.3664 16.5707 29.287 16.5242C29.0447 16.3848 28.961 16.0746 29.1011 15.8322L29.939 14.3788C30.0784 14.1371 30.388 14.0521 30.631 14.1922C30.8734 14.3316 30.957 14.6419 30.8169 14.8842L29.979 16.3377C29.8854 16.5007 29.7152 16.5922 29.5394 16.5922ZM13.5296 31.1013C13.3452 31.1013 13.1672 30.9998 13.0778 30.8239C12.9513 30.5744 13.0506 30.2699 13.3001 30.1426L14.8029 29.3791C15.0517 29.2525 15.3569 29.3519 15.4842 29.6007C15.6107 29.8502 15.5114 30.1548 15.2626 30.282L13.7598 31.0455C13.6855 31.0834 13.6068 31.1013 13.5296 31.1013ZM33.6544 20.9281C33.47 20.9281 33.292 20.8266 33.2026 20.6507C33.076 20.4005 33.1754 20.0967 33.4249 19.9694L34.9284 19.2059C35.1772 19.0801 35.4824 19.1787 35.6097 19.4282C35.7362 19.6784 35.6369 19.9823 35.3874 20.1095L33.8839 20.8731C33.8103 20.9095 33.7316 20.9281 33.6544 20.9281ZM30.378 36.1507C30.2014 36.1507 30.0298 36.0578 29.9369 35.8941L29.099 34.4156C28.961 34.1719 29.0468 33.863 29.2906 33.725C29.5315 33.5871 29.8425 33.6721 29.9812 33.9159L30.8191 35.3944C30.957 35.6381 30.8713 35.947 30.6282 36.085C30.5488 36.1286 30.463 36.1507 30.378 36.1507ZM19.146 16.5922C18.9708 16.5922 18.8007 16.5007 18.707 16.3384L17.8691 14.8849C17.729 14.6426 17.8127 14.3323 18.055 14.1929C18.2988 14.0528 18.6076 14.1379 18.7471 14.3795L19.5849 15.8329C19.7251 16.0753 19.6414 16.3856 19.3991 16.525C19.319 16.5707 19.2318 16.5922 19.146 16.5922ZM35.1572 31.1013C35.0799 31.1013 35.0013 31.0834 34.9284 31.0463L33.4249 30.2827C33.1754 30.1555 33.076 29.8509 33.2026 29.6014C33.3284 29.3519 33.6344 29.2533 33.8839 29.3798L35.3874 30.1433C35.6369 30.2706 35.7362 30.5751 35.6097 30.8246C35.5196 31.0005 35.3416 31.1013 35.1572 31.1013ZM15.0324 20.9281C14.9552 20.9281 14.8765 20.9102 14.8029 20.8731L13.3001 20.1095C13.0506 19.9823 12.9513 19.6777 13.0778 19.4282C13.2043 19.1787 13.5096 19.0808 13.7591 19.2059L15.2619 19.9694C15.5114 20.0967 15.6107 20.4019 15.4835 20.6507C15.3948 20.8266 15.2168 20.9281 15.0324 20.9281ZM24.3434 26.9126C24.2933 26.9126 24.2419 26.9048 24.1925 26.8898C23.9809 26.8233 23.8372 26.6274 23.8372 26.4058V17.39C23.8372 17.1098 24.0639 16.8831 24.3434 16.8831C24.6229 16.8831 24.8496 17.1098 24.8496 17.39V24.7836L26.857 21.8811C27.0164 21.6516 27.3332 21.5944 27.5619 21.7524C27.7921 21.9118 27.8493 22.2271 27.6906 22.4573L24.7595 26.6939C24.6637 26.8333 24.5064 26.9126 24.3434 26.9126Z" fill="black"/>
</svg>
