<svg width="50" height="20" viewBox="0 0 50 20" fill="none" xmlns="http://www.w3.org/2000/svg">
<path d="M47.3611 13.8887H2.63889C1.18147 13.8887 0 15.0701 0 16.5276V16.8053C0 18.2628 1.18147 19.4442 2.63889 19.4442H47.3611C48.8185 19.4442 50 18.2628 50 16.8053V16.5276C50 15.0701 48.8185 13.8887 47.3611 13.8887Z" fill="black"/>
<path d="M47.3611 0H2.63889C1.18147 0 0 1.18147 0 2.63889V2.91667C0 4.37409 1.18147 5.55556 2.63889 5.55556H47.3611C48.8185 5.55556 50 4.37409 50 2.91667V2.63889C50 1.18147 48.8185 0 47.3611 0Z" fill="black"/>
</svg>
