<svg width="19" height="13" viewBox="0 0 19 13" fill="none" xmlns="http://www.w3.org/2000/svg">
<path d="M18.9389 2.85662L16.8466 8.70251C16.6901 9.11883 16.2795 9.39638 15.7906 9.39638H7.7147C7.2454 9.39638 6.79565 9.13618 6.63921 8.75455L3.54963 1.41683H1.77018C1.33998 1.41683 0.988006 1.10459 0.988006 0.722956C0.988006 0.341326 1.33998 0.0290823 1.77018 0.0290823H4.09715C4.42957 0.0290823 4.72289 0.219898 4.84021 0.497447L8.02757 8.00863H15.4582L17.1203 3.32498H7.91025C7.48005 3.32498 7.12807 3.01274 7.12807 2.63111C7.12807 2.24948 7.48005 1.93724 7.91025 1.93724H18.1958C18.45 1.93724 18.6847 2.05866 18.8216 2.23213C18.978 2.4056 19.0171 2.64846 18.9389 2.85662ZM8.10579 10.3158C7.77337 10.3158 7.44094 10.4372 7.20629 10.6454C6.97164 10.8535 6.83476 11.1484 6.83476 11.4433C6.83476 11.7382 6.97164 12.0331 7.20629 12.2413C7.44094 12.4494 7.77337 12.5709 8.10579 12.5709C8.43821 12.5709 8.77064 12.4494 9.00529 12.2413C9.23994 12.0331 9.37682 11.7382 9.37682 11.4433C9.37682 11.1484 9.23994 10.8535 9.00529 10.6454C8.77064 10.4372 8.43821 10.3158 8.10579 10.3158ZM15.1258 10.3158C14.7934 10.3158 14.461 10.4372 14.2263 10.6454C13.9916 10.8535 13.8548 11.1484 13.8548 11.4433C13.8548 11.7382 13.9916 12.0331 14.2263 12.2413C14.461 12.4494 14.7934 12.5709 15.1258 12.5709C15.4582 12.5709 15.7906 12.4494 16.0253 12.2413C16.26 12.0331 16.3968 11.7382 16.3968 11.4433C16.3968 11.1484 16.26 10.8535 16.0253 10.6454C15.7906 10.4372 15.4582 10.3158 15.1258 10.3158Z" fill="black"/>
</svg>
