<svg width="50" height="47" viewBox="0 0 50 47" fill="none" xmlns="http://www.w3.org/2000/svg">
<path d="M36.25 0C31.875 0 27.7502 2.01226 25 5.28209C22.2496 2.01226 18.125 0 13.75 0C5.99976 0 0 6.03618 0 13.8335C0 23.3907 8.49976 31.0629 21.3745 42.8833L25 46.1538L28.6255 42.8833C41.5001 31.0627 50 23.3906 50 13.8335C50 6.03618 44.0002 0 36.25 0ZM26.5428 39.5742L26.0357 40.0397L25 40.9739L23.9644 40.0398L23.4579 39.5748C17.3981 34.012 12.1645 29.2077 8.70481 24.912C5.34459 20.7398 3.84615 17.3231 3.84615 13.8335C3.84615 11.0853 4.85841 8.55337 6.69651 6.70421C8.52848 4.86118 11.0334 3.84615 13.75 3.84615C16.8911 3.84615 19.9964 5.30853 22.0565 7.75781L25 11.2573L27.9434 7.75781C30.0036 5.30853 33.1088 3.84615 36.25 3.84615C38.9667 3.84615 41.4715 4.86118 43.3036 6.70409C45.1416 8.55337 46.1538 11.0852 46.1538 13.8335C46.1538 17.3231 44.6554 20.7397 41.2954 24.9118C37.8358 29.2075 32.6025 34.0114 26.5428 39.5742Z" fill="black"/>
</svg>
