<svg width="19" height="17" viewBox="0 0 19 17" fill="none" xmlns="http://www.w3.org/2000/svg">
<path d="M17.3379 1.81158C16.3841 0.855358 15.1199 0.271733 13.7735 0.166132C12.427 0.0605304 11.0872 0.439915 9.99609 1.23576C8.85132 0.384287 7.42645 -0.00181056 6.00842 0.155216C4.59038 0.312242 3.28451 1.00073 2.35377 2.08203C1.42303 3.16333 0.936557 4.55712 0.992321 5.98274C1.04809 7.40835 1.64194 8.75989 2.6543 9.76518L8.24161 15.3615C8.70949 15.822 9.33963 16.08 9.99609 16.08C10.6525 16.08 11.2827 15.822 11.7506 15.3615L17.3379 9.76518C18.3884 8.70824 18.978 7.27858 18.978 5.78838C18.978 4.29819 18.3884 2.86852 17.3379 1.81158ZM16.0693 8.52356L10.4819 14.1109C10.4184 14.1751 10.3427 14.226 10.2593 14.2608C10.1759 14.2956 10.0864 14.3135 9.99609 14.3135C9.90573 14.3135 9.81627 14.2956 9.73288 14.2608C9.64949 14.226 9.57381 14.1751 9.51023 14.1109L3.92292 8.49657C3.21731 7.7753 2.8222 6.8064 2.8222 5.79738C2.8222 4.78837 3.21731 3.81947 3.92292 3.09819C4.64194 2.3883 5.61168 1.99024 6.6221 1.99024C7.63252 1.99024 8.60227 2.3883 9.32129 3.09819C9.40493 3.18252 9.50444 3.24946 9.61408 3.29514C9.72372 3.34082 9.84132 3.36433 9.9601 3.36433C10.0789 3.36433 10.1965 3.34082 10.3061 3.29514C10.4158 3.24946 10.5153 3.18252 10.5989 3.09819C11.3179 2.3883 12.2877 1.99024 13.2981 1.99024C14.3085 1.99024 15.2783 2.3883 15.9973 3.09819C16.7126 3.81001 17.1207 4.77366 17.1341 5.7827C17.1476 6.79174 16.7653 7.76593 16.0693 8.49657V8.52356Z" fill="black"/>
</svg>
