<svg width="15" height="15" viewBox="0 0 15 15" fill="none" xmlns="http://www.w3.org/2000/svg">
<path d="M14.5809 1.92369L14.5475 1.89033L12.7457 0.322507C12.4954 0.0890011 12.1617 -0.0277517 11.7947 0.00560628C11.4777 0.0389642 11.1607 0.172396 10.9271 0.405902L10.8771 0.455938L9.10861 2.69092C8.64147 3.19129 8.65815 3.95852 9.14198 4.44221C9.17535 4.47557 9.20871 4.50893 9.24208 4.52561L10.143 5.12605C10.0763 5.44295 9.60913 6.34361 7.95743 7.99483C6.32242 9.62937 5.40481 10.0964 5.1045 10.1631L4.50388 9.26243C4.4872 9.22908 4.45383 9.19572 4.42046 9.16236C3.93663 8.67867 3.1525 8.67867 2.66867 9.129L0.449721 10.897L0.39967 10.947C-0.100844 11.4474 -0.134212 12.2813 0.316251 12.765L1.88453 14.5497L1.9179 14.583C2.2182 14.8832 2.68535 15 3.20255 15C4.12016 15 5.17124 14.6331 5.7218 14.4162C6.78956 13.9993 8.87504 12.9818 10.9438 10.9137C12.4787 9.37919 13.7133 7.52782 14.4474 5.69313C14.7477 4.85919 15.4485 2.79099 14.5809 1.92369ZM9.97617 9.99631C6.88967 13.0819 3.41944 13.9325 2.8355 13.649L1.31728 11.8977L3.48617 10.1798L4.0701 11.0638C4.08679 11.0804 4.08679 11.0971 4.10347 11.1138C4.30368 11.364 4.5873 11.4974 4.92098 11.5141C5.23797 11.5308 6.22231 11.5808 8.87504 8.92885C9.52571 8.27837 11.5278 6.2769 11.461 4.97594C11.4443 4.64236 11.2942 4.35882 11.0606 4.15867C11.0439 4.14199 11.0272 4.12531 11.0106 4.12531L10.1597 3.52487L11.8781 1.33992L13.6132 2.85771C13.9135 3.44147 13.0627 6.9107 9.97617 9.99631Z" fill="#FFC300"/>
</svg>
