<svg width="50" height="50" viewBox="0 0 50 50" fill="none" xmlns="http://www.w3.org/2000/svg">
<path d="M49.1786 45.2354L39.7372 35.8218C42.7834 31.941 44.4363 27.1486 44.4301 22.2151C44.4301 17.8213 43.1272 13.5263 40.6862 9.87304C38.2452 6.2198 34.7757 3.37244 30.7164 1.69103C26.6571 0.00962537 22.1904 -0.430307 17.8811 0.426866C13.5718 1.28404 9.61348 3.39982 6.50665 6.50665C3.39982 9.61348 1.28404 13.5718 0.426866 17.8811C-0.430307 22.1904 0.00962537 26.6571 1.69103 30.7164C3.37244 34.7757 6.2198 38.2452 9.87304 40.6862C13.5263 43.1272 17.8213 44.4301 22.2151 44.4301C27.1486 44.4363 31.941 42.7834 35.8218 39.7372L45.2354 49.1786C45.4936 49.4389 45.8007 49.6455 46.1391 49.7864C46.4775 49.9274 46.8404 50 47.207 50C47.5736 50 47.9366 49.9274 48.2749 49.7864C48.6133 49.6455 48.9205 49.4389 49.1786 49.1786C49.4389 48.9205 49.6455 48.6133 49.7864 48.2749C49.9274 47.9366 50 47.5736 50 47.207C50 46.8404 49.9274 46.4775 49.7864 46.1391C49.6455 45.8007 49.4389 45.4936 49.1786 45.2354ZM5.55378 22.2151C5.55378 18.9198 6.53094 15.6985 8.36171 12.9586C10.1925 10.2186 12.7946 8.08309 15.8391 6.82204C18.8835 5.56099 22.2336 5.23104 25.4655 5.87392C28.6975 6.5168 31.6663 8.10363 33.9964 10.4338C36.3265 12.7639 37.9133 15.7326 38.5562 18.9646C39.1991 22.1966 38.8692 25.5466 37.6081 28.5911C36.347 31.6355 34.2115 34.2377 31.4716 36.0684C28.7317 37.8992 25.5104 38.8764 22.2151 38.8764C17.7962 38.8764 13.5584 37.121 10.4338 33.9964C7.30916 30.8718 5.55378 26.6339 5.55378 22.2151Z" fill="black"/>
</svg>
