<svg width="18" height="18" viewBox="0 0 18 18" fill="none" xmlns="http://www.w3.org/2000/svg">
<path fill-rule="evenodd" clip-rule="evenodd" d="M10.644 11.7045C9.58101 12.4994 8.2564 12.8621 6.93674 12.7197C5.61709 12.5773 4.40036 11.9403 3.53141 10.937C2.66247 9.93363 2.20582 8.63839 2.25337 7.31193C2.30092 5.98547 2.84914 4.72625 3.78769 3.78769C4.72625 2.84914 5.98547 2.30092 7.31193 2.25337C8.63839 2.20582 9.93363 2.66247 10.937 3.53141C11.9403 4.40036 12.5773 5.61709 12.7197 6.93674C12.8621 8.2564 12.4994 9.58101 11.7045 10.644L15.5835 14.523C15.7201 14.6645 15.7957 14.8539 15.794 15.0505C15.7923 15.2472 15.7134 15.4353 15.5744 15.5744C15.4353 15.7134 15.2472 15.7923 15.0505 15.794C14.8539 15.7957 14.6645 15.7201 14.523 15.5835L10.644 11.7045ZM11.25 7.5C11.25 8.49456 10.8549 9.44839 10.1516 10.1516C9.44839 10.8549 8.49456 11.25 7.5 11.25C6.50544 11.25 5.55161 10.8549 4.84835 10.1516C4.14509 9.44839 3.75 8.49456 3.75 7.5C3.75 6.50544 4.14509 5.55161 4.84835 4.84835C5.55161 4.14509 6.50544 3.75 7.5 3.75C8.49456 3.75 9.44839 4.14509 10.1516 4.84835C10.8549 5.55161 11.25 6.50544 11.25 7.5Z" fill="black"/>
</svg>
