<svg width="18" height="25" viewBox="0 0 18 25" fill="none" xmlns="http://www.w3.org/2000/svg">
<mask id="path-1-inside-1_238_26" fill="white">
<path d="M17.5 12.4678L0.283971 24.6404L0.216074 0.391787L17.5 12.4678Z"/>
</mask>
<path d="M17.5 12.4678L0.283971 24.6404L0.216074 0.391787L17.5 12.4678Z" fill="black"/>
<path d="M17.5 12.4678L26.7371 25.5321L45.3244 12.3899L26.6638 -0.648007L17.5 12.4678ZM0.283971 24.6404L-15.716 24.6852L-15.6297 55.4876L9.5211 37.7047L0.283971 24.6404ZM0.216074 0.391787L9.3799 -12.724L-15.8701 -30.3658L-15.7839 0.436587L0.216074 0.391787ZM8.26282 -0.596484L-8.95316 11.5761L9.5211 37.7047L26.7371 25.5321L8.26282 -0.596484ZM16.2839 24.5956L16.216 0.346987L-15.7839 0.436587L-15.716 24.6852L16.2839 24.5956ZM-8.94775 13.5076L8.33613 25.5836L26.6638 -0.648007L9.3799 -12.724L-8.94775 13.5076Z" fill="black" mask="url(#path-1-inside-1_238_26)"/>
</svg>
